<svg width="144" height="28" viewBox="0 0 144 28" fill="none" xmlns="http://www.w3.org/2000/svg">
<path d="M8.09233 27L0.703125 0.818181H5.80398L10.5213 20.0582H10.7642L15.8011 0.818181H20.4418L25.4915 20.071H25.7216L30.4389 0.818181H35.5398L28.1506 27H23.4716L18.2301 8.62926H18.0256L12.7713 27H8.09233ZM44.5932 27.3835C42.6245 27.3835 40.9242 26.9744 39.4924 26.1562C38.0691 25.3295 36.9739 24.1619 36.2068 22.6534C35.4398 21.1364 35.0563 19.3509 35.0563 17.2969C35.0563 15.277 35.4398 13.5043 36.2068 11.9787C36.9824 10.4446 38.0648 9.25142 39.454 8.39915C40.8432 7.53835 42.4753 7.10795 44.3503 7.10795C45.5605 7.10795 46.7026 7.30398 47.7764 7.69602C48.8588 8.07954 49.8134 8.67614 50.6401 9.4858C51.4753 10.2955 52.1316 11.3267 52.6088 12.5795C53.0861 13.8239 53.3247 15.3068 53.3247 17.0284V18.4474H37.2296V15.3281H48.8887C48.8801 14.4418 48.6884 13.6534 48.3134 12.9631C47.9384 12.2642 47.4142 11.7145 46.7409 11.3139C46.0762 10.9134 45.3006 10.7131 44.4142 10.7131C43.4682 10.7131 42.6372 10.9432 41.9213 11.4034C41.2054 11.8551 40.6472 12.4517 40.2466 13.1932C39.8546 13.9261 39.6543 14.7315 39.6458 15.6094V18.3324C39.6458 19.4744 39.8546 20.4545 40.2722 21.2727C40.6898 22.0824 41.2736 22.7045 42.0236 23.1392C42.7736 23.5653 43.6514 23.7784 44.6571 23.7784C45.3304 23.7784 45.9398 23.6847 46.4853 23.4972C47.0307 23.3011 47.5037 23.0156 47.9043 22.6406C48.3049 22.2656 48.6074 21.8011 48.812 21.2472L53.133 21.733C52.8603 22.875 52.3404 23.8722 51.5733 24.7244C50.8148 25.5682 49.8432 26.2244 48.6586 26.6932C47.4739 27.1534 46.1188 27.3835 44.5932 27.3835ZM62.1704 27.3963C60.9261 27.3963 59.8054 27.1747 58.8082 26.7315C57.8196 26.2798 57.0355 25.6151 56.456 24.7372C55.8849 23.8594 55.5994 22.777 55.5994 21.4901C55.5994 20.3821 55.804 19.4659 56.2131 18.7415C56.6221 18.017 57.1804 17.4375 57.8878 17.0028C58.5952 16.5682 59.392 16.2401 60.2784 16.0185C61.1733 15.7884 62.098 15.6222 63.0525 15.5199C64.2031 15.4006 65.1364 15.294 65.8523 15.2003C66.5682 15.098 67.0881 14.9446 67.4119 14.7401C67.7443 14.527 67.9105 14.1989 67.9105 13.7557V13.679C67.9105 12.7159 67.625 11.9702 67.054 11.4418C66.4829 10.9134 65.6605 10.6491 64.5866 10.6491C63.4531 10.6491 62.554 10.8963 61.8892 11.3906C61.2329 11.8849 60.7898 12.4687 60.5596 13.142L56.2386 12.5284C56.5795 11.3352 57.142 10.3381 57.9261 9.53693C58.7102 8.72727 59.669 8.12216 60.8025 7.72159C61.9361 7.3125 63.1889 7.10795 64.5611 7.10795C65.5071 7.10795 66.4489 7.21875 67.3864 7.44034C68.3239 7.66193 69.1804 8.02841 69.956 8.53977C70.7315 9.04261 71.3537 9.72869 71.8224 10.598C72.2997 11.4673 72.5383 12.554 72.5383 13.858V27H68.0895V24.3026H67.9361C67.6548 24.848 67.2585 25.3594 66.7471 25.8366C66.2443 26.3054 65.6094 26.6847 64.8423 26.9744C64.0838 27.2557 63.1932 27.3963 62.1704 27.3963ZM63.3721 23.9957C64.3011 23.9957 65.1065 23.8125 65.7883 23.446C66.4702 23.071 66.9943 22.5767 67.3608 21.9631C67.7358 21.3494 67.9233 20.6804 67.9233 19.956V17.642C67.7784 17.7614 67.5312 17.8722 67.1818 17.9744C66.8409 18.0767 66.4574 18.1662 66.0312 18.2429C65.6051 18.3196 65.1832 18.3878 64.7656 18.4474C64.348 18.5071 63.9858 18.5582 63.679 18.6009C62.9886 18.6946 62.3707 18.848 61.8253 19.0611C61.2798 19.2741 60.8494 19.5724 60.5341 19.956C60.2187 20.331 60.0611 20.8168 60.0611 21.4134C60.0611 22.2656 60.3721 22.9091 60.9943 23.3438C61.6165 23.7784 62.4091 23.9957 63.3721 23.9957ZM86.2771 7.36364V10.9432H74.9888V7.36364H86.2771ZM77.7757 2.65909H82.4036V21.0938C82.4036 21.7159 82.4973 22.1932 82.6848 22.5256C82.8808 22.8494 83.1365 23.071 83.4519 23.1903C83.7672 23.3097 84.1166 23.3693 84.5002 23.3693C84.7899 23.3693 85.0541 23.348 85.2928 23.3054C85.5399 23.2628 85.7274 23.2244 85.8553 23.1903L86.6351 26.8082C86.3879 26.8935 86.0342 26.9872 85.574 27.0895C85.1223 27.1918 84.5683 27.2514 83.9121 27.2685C82.753 27.3026 81.709 27.1278 80.78 26.7443C79.851 26.3523 79.1138 25.7472 78.5683 24.929C78.0314 24.1108 77.7672 23.0881 77.7757 21.8608V2.65909ZM94.4772 15.4943V27H89.8494V0.818181H94.375V10.7003H94.6051C95.0653 9.59233 95.777 8.71875 96.74 8.07955C97.7116 7.43182 98.9474 7.10795 100.447 7.10795C101.811 7.10795 103 7.39347 104.014 7.96449C105.028 8.53551 105.812 9.37074 106.366 10.4702C106.929 11.5696 107.21 12.9119 107.21 14.4972V27H102.582V15.2131C102.582 13.892 102.241 12.8651 101.56 12.1321C100.886 11.3906 99.9403 11.0199 98.7216 11.0199C97.9034 11.0199 97.1704 11.1989 96.5227 11.5568C95.8835 11.9062 95.3807 12.4134 95.0142 13.0781C94.6562 13.7429 94.4772 14.5483 94.4772 15.4943ZM119.901 27.3835C117.932 27.3835 116.232 26.9744 114.8 26.1562C113.377 25.3295 112.281 24.1619 111.514 22.6534C110.747 21.1364 110.364 19.3509 110.364 17.2969C110.364 15.277 110.747 13.5043 111.514 11.9787C112.29 10.4446 113.372 9.25142 114.762 8.39915C116.151 7.53835 117.783 7.10795 119.658 7.10795C120.868 7.10795 122.01 7.30398 123.084 7.69602C124.166 8.07954 125.121 8.67614 125.948 9.4858C126.783 10.2955 127.439 11.3267 127.916 12.5795C128.394 13.8239 128.632 15.3068 128.632 17.0284V18.4474H112.537V15.3281H124.196C124.188 14.4418 123.996 13.6534 123.621 12.9631C123.246 12.2642 122.722 11.7145 122.048 11.3139C121.384 10.9134 120.608 10.7131 119.722 10.7131C118.776 10.7131 117.945 10.9432 117.229 11.4034C116.513 11.8551 115.955 12.4517 115.554 13.1932C115.162 13.9261 114.962 14.7315 114.953 15.6094V18.3324C114.953 19.4744 115.162 20.4545 115.58 21.2727C115.997 22.0824 116.581 22.7045 117.331 23.1392C118.081 23.5653 118.959 23.7784 119.965 23.7784C120.638 23.7784 121.247 23.6847 121.793 23.4972C122.338 23.3011 122.811 23.0156 123.212 22.6406C123.612 22.2656 123.915 21.8011 124.119 21.2472L128.44 21.733C128.168 22.875 127.648 23.8722 126.881 24.7244C126.122 25.5682 125.151 26.2244 123.966 26.6932C122.781 27.1534 121.426 27.3835 119.901 27.3835ZM131.827 27V7.36364H136.315V10.6364H136.519C136.877 9.50284 137.491 8.62926 138.36 8.01562C139.238 7.39347 140.239 7.08239 141.364 7.08239C141.62 7.08239 141.905 7.09517 142.221 7.12074C142.545 7.13778 142.813 7.16761 143.026 7.21023V11.4673C142.83 11.3991 142.519 11.3395 142.093 11.2884C141.675 11.2287 141.271 11.1989 140.879 11.1989C140.035 11.1989 139.276 11.3821 138.603 11.7486C137.938 12.1065 137.414 12.6051 137.03 13.2443C136.647 13.8835 136.455 14.6207 136.455 15.456V27H131.827Z" fill="#181D27"/>
</svg>
