<svg width="271" height="29" viewBox="0 0 271 29" fill="none" xmlns="http://www.w3.org/2000/svg">
<path d="M0.582386 1.81818H6.38636L14.1591 20.7898H14.4659L22.2386 1.81818H28.0426V28H23.4915V10.0128H23.2486L16.0128 27.9233H12.6122L5.37642 9.97443H5.13352V28H0.582386V1.81818ZM40.976 28.3835C39.0073 28.3835 37.307 27.9744 35.8752 27.1562C34.4519 26.3295 33.3567 25.1619 32.5897 23.6534C31.8226 22.1364 31.4391 20.3509 31.4391 18.2969C31.4391 16.277 31.8226 14.5043 32.5897 12.9787C33.3652 11.4446 34.4476 10.2514 35.8368 9.39915C37.226 8.53835 38.8581 8.10795 40.7331 8.10795C41.9434 8.10795 43.0854 8.30398 44.1593 8.69602C45.2416 9.07954 46.1962 9.67614 47.0229 10.4858C47.8581 11.2955 48.5144 12.3267 48.9916 13.5795C49.4689 14.8239 49.7076 16.3068 49.7076 18.0284V19.4474H33.6124V16.3281H45.2715C45.263 15.4418 45.0712 14.6534 44.6962 13.9631C44.3212 13.2642 43.797 12.7145 43.1238 12.3139C42.459 11.9134 41.6834 11.7131 40.797 11.7131C39.851 11.7131 39.0201 11.9432 38.3041 12.4034C37.5882 12.8551 37.03 13.4517 36.6294 14.1932C36.2374 14.9261 36.0371 15.7315 36.0286 16.6094V19.3324C36.0286 20.4744 36.2374 21.4545 36.655 22.2727C37.0726 23.0824 37.6564 23.7045 38.4064 24.1392C39.1564 24.5653 40.0343 24.7784 41.0399 24.7784C41.7132 24.7784 42.3226 24.6847 42.8681 24.4972C43.4135 24.3011 43.8865 24.0156 44.2871 23.6406C44.6877 23.2656 44.9902 22.8011 45.1948 22.2472L49.5158 22.733C49.2431 23.875 48.7232 24.8722 47.9561 25.7244C47.1976 26.5682 46.226 27.2244 45.0414 27.6932C43.8567 28.1534 42.5016 28.3835 40.976 28.3835ZM60.1896 28.3452C58.647 28.3452 57.2663 27.9489 56.0476 27.1562C54.8288 26.3636 53.8658 25.2131 53.1584 23.7045C52.451 22.196 52.0973 20.3636 52.0973 18.2074C52.0973 16.0256 52.4552 14.1847 53.1712 12.6847C53.8956 11.1761 54.8714 10.0384 56.0987 9.27131C57.326 8.49574 58.6939 8.10795 60.2024 8.10795C61.353 8.10795 62.299 8.30398 63.0405 8.69602C63.7819 9.07954 64.37 9.54403 64.8047 10.0895C65.2393 10.6264 65.576 11.1335 65.8146 11.6108H66.0064V1.81818H70.647V28H66.0959V24.9062H65.8146C65.576 25.3835 65.2308 25.8906 64.7791 26.4276C64.3274 26.956 63.7308 27.4077 62.9893 27.7827C62.2479 28.1577 61.3146 28.3452 60.1896 28.3452ZM61.4808 24.5483C62.4609 24.5483 63.2962 24.2841 63.9865 23.7557C64.6768 23.2187 65.201 22.473 65.5589 21.5185C65.9169 20.5639 66.0959 19.4517 66.0959 18.1818C66.0959 16.9119 65.9169 15.8082 65.5589 14.8707C65.2095 13.9332 64.6896 13.2045 63.9993 12.6847C63.3175 12.1648 62.478 11.9048 61.4808 11.9048C60.4496 11.9048 59.5888 12.1733 58.8984 12.7102C58.2081 13.2472 57.6882 13.9886 57.3388 14.9347C56.9893 15.8807 56.8146 16.9631 56.8146 18.1818C56.8146 19.4091 56.9893 20.5043 57.3388 21.4673C57.6967 22.4219 58.2209 23.1761 58.9112 23.7301C59.6101 24.2756 60.4666 24.5483 61.4808 24.5483ZM74.8585 28V8.36364H79.4863V28H74.8585ZM77.1852 5.5767C76.4522 5.5767 75.8215 5.33381 75.2931 4.84801C74.7647 4.35369 74.5005 3.76136 74.5005 3.07102C74.5005 2.37216 74.7647 1.77983 75.2931 1.29403C75.8215 0.799715 76.4522 0.552556 77.1852 0.552556C77.9266 0.552556 78.5573 0.799715 79.0772 1.29403C79.6056 1.77983 79.8698 2.37216 79.8698 3.07102C79.8698 3.76136 79.6056 4.35369 79.0772 4.84801C78.5573 5.33381 77.9266 5.5767 77.1852 5.5767ZM89.1758 28.3963C87.9314 28.3963 86.8107 28.1747 85.8135 27.7315C84.8249 27.2798 84.0408 26.6151 83.4613 25.7372C82.8902 24.8594 82.6047 23.777 82.6047 22.4901C82.6047 21.3821 82.8093 20.4659 83.2184 19.7415C83.6275 19.017 84.1857 18.4375 84.8931 18.0028C85.6005 17.5682 86.3973 17.2401 87.2837 17.0185C88.1786 16.7884 89.1033 16.6222 90.0579 16.5199C91.2084 16.4006 92.1417 16.294 92.8576 16.2003C93.5735 16.098 94.0934 15.9446 94.4172 15.7401C94.7496 15.527 94.9158 15.1989 94.9158 14.7557V14.679C94.9158 13.7159 94.6303 12.9702 94.0593 12.4418C93.4883 11.9134 92.6658 11.6491 91.5919 11.6491C90.4584 11.6491 89.5593 11.8963 88.8945 12.3906C88.2383 12.8849 87.7951 13.4687 87.565 14.142L83.2439 13.5284C83.5848 12.3352 84.1473 11.3381 84.9314 10.5369C85.7155 9.72727 86.6743 9.12216 87.8079 8.72159C88.9414 8.3125 90.1942 8.10795 91.5664 8.10795C92.5124 8.10795 93.4542 8.21875 94.3917 8.44034C95.3292 8.66193 96.1857 9.02841 96.9613 9.53977C97.7368 10.0426 98.359 10.7287 98.8277 11.598C99.305 12.4673 99.5437 13.554 99.5437 14.858V28H95.0948V25.3026H94.9414C94.6601 25.848 94.2638 26.3594 93.7525 26.8366C93.2496 27.3054 92.6147 27.6847 91.8476 27.9744C91.0891 28.2557 90.1985 28.3963 89.1758 28.3963ZM90.3775 24.9957C91.3064 24.9957 92.1118 24.8125 92.7937 24.446C93.4755 24.071 93.9996 23.5767 94.3661 22.9631C94.7411 22.3494 94.9286 21.6804 94.9286 20.956V18.642C94.7837 18.7614 94.5366 18.8722 94.1871 18.9744C93.8462 19.0767 93.4627 19.1662 93.0366 19.2429C92.6104 19.3196 92.1885 19.3878 91.7709 19.4474C91.3533 19.5071 90.9911 19.5582 90.6843 19.6009C89.9939 19.6946 89.376 19.848 88.8306 20.0611C88.2851 20.2741 87.8547 20.5724 87.5394 20.956C87.2241 21.331 87.0664 21.8168 87.0664 22.4134C87.0664 23.2656 87.3775 23.9091 87.9996 24.3438C88.6218 24.7784 89.4144 24.9957 90.3775 24.9957ZM119.511 28.3835C117.721 28.3835 116.182 28.0597 114.896 27.4119C113.609 26.7642 112.616 25.8906 111.917 24.7912C111.227 23.6832 110.881 22.4347 110.881 21.0455C110.881 19.9972 111.094 19.0682 111.521 18.2585C111.955 17.4489 112.552 16.6989 113.31 16.0085C114.077 15.3182 114.964 14.6321 115.969 13.9503L120.61 10.7926C121.292 10.3494 121.807 9.88068 122.157 9.38636C122.515 8.89204 122.694 8.3125 122.694 7.64773C122.694 7.08523 122.455 6.55256 121.978 6.04972C121.509 5.54688 120.861 5.29545 120.035 5.29545C119.481 5.29545 118.991 5.42756 118.565 5.69176C118.147 5.94744 117.819 6.28409 117.58 6.7017C117.35 7.11932 117.235 7.5625 117.235 8.03125C117.235 8.60227 117.393 9.18182 117.708 9.76989C118.032 10.358 118.45 10.9673 118.961 11.598C119.481 12.2287 120.035 12.8977 120.623 13.6051L132.908 28H127.897L117.695 16.3153C116.937 15.429 116.204 14.5554 115.496 13.6946C114.798 12.8338 114.222 11.9389 113.771 11.0099C113.327 10.0724 113.106 9.05824 113.106 7.96733C113.106 6.73153 113.391 5.62784 113.962 4.65625C114.533 3.67614 115.33 2.90483 116.353 2.34233C117.384 1.77983 118.59 1.49858 119.971 1.49858C121.352 1.49858 122.536 1.77131 123.525 2.31676C124.513 2.86221 125.276 3.58665 125.813 4.49006C126.35 5.39347 126.619 6.37784 126.619 7.44318C126.619 8.67898 126.312 9.78693 125.698 10.767C125.084 11.7386 124.232 12.6207 123.141 13.4134L117.849 17.2869C116.979 17.9176 116.357 18.5568 115.982 19.2045C115.607 19.8437 115.42 20.3892 115.42 20.8409C115.42 21.5312 115.594 22.1577 115.944 22.7202C116.293 23.2827 116.783 23.7344 117.414 24.0753C118.053 24.4077 118.799 24.5739 119.651 24.5739C120.589 24.5739 121.513 24.3651 122.425 23.9474C123.337 23.5213 124.168 22.9162 124.918 22.1321C125.668 21.348 126.265 20.4105 126.708 19.3196C127.151 18.2202 127.373 17.0014 127.373 15.6634H131.349C131.349 17.3168 131.165 18.7571 130.799 19.9844C130.432 21.2031 129.959 22.2344 129.38 23.0781C128.8 23.9134 128.187 24.5824 127.539 25.0852C127.334 25.2301 127.138 25.375 126.951 25.5199C126.763 25.6648 126.567 25.8097 126.363 25.9545C125.442 26.7898 124.364 27.4034 123.129 27.7955C121.901 28.1875 120.695 28.3835 119.511 28.3835ZM150.334 28.3452C148.792 28.3452 147.411 27.9489 146.192 27.1562C144.974 26.3636 144.011 25.2131 143.303 23.7045C142.596 22.196 142.242 20.3636 142.242 18.2074C142.242 16.0256 142.6 14.1847 143.316 12.6847C144.04 11.1761 145.016 10.0384 146.244 9.27131C147.471 8.49574 148.839 8.10795 150.347 8.10795C151.498 8.10795 152.444 8.30398 153.185 8.69602C153.927 9.07954 154.515 9.54403 154.95 10.0895C155.384 10.6264 155.721 11.1335 155.959 11.6108H156.151V1.81818H160.792V28H156.241V24.9062H155.959C155.721 25.3835 155.376 25.8906 154.924 26.4276C154.472 26.956 153.876 27.4077 153.134 27.7827C152.393 28.1577 151.459 28.3452 150.334 28.3452ZM151.626 24.5483C152.606 24.5483 153.441 24.2841 154.131 23.7557C154.822 23.2187 155.346 22.473 155.704 21.5185C156.062 20.5639 156.241 19.4517 156.241 18.1818C156.241 16.9119 156.062 15.8082 155.704 14.8707C155.354 13.9332 154.834 13.2045 154.144 12.6847C153.462 12.1648 152.623 11.9048 151.626 11.9048C150.594 11.9048 149.734 12.1733 149.043 12.7102C148.353 13.2472 147.833 13.9886 147.484 14.9347C147.134 15.8807 146.959 16.9631 146.959 18.1818C146.959 19.4091 147.134 20.5043 147.484 21.4673C147.842 22.4219 148.366 23.1761 149.056 23.7301C149.755 24.2756 150.611 24.5483 151.626 24.5483ZM173.696 28.3835C171.728 28.3835 170.027 27.9744 168.596 27.1562C167.172 26.3295 166.077 25.1619 165.31 23.6534C164.543 22.1364 164.16 20.3509 164.16 18.2969C164.16 16.277 164.543 14.5043 165.31 12.9787C166.086 11.4446 167.168 10.2514 168.557 9.39915C169.946 8.53835 171.579 8.10795 173.454 8.10795C174.664 8.10795 175.806 8.30398 176.88 8.69602C177.962 9.07954 178.917 9.67614 179.743 10.4858C180.579 11.2955 181.235 12.3267 181.712 13.5795C182.189 14.8239 182.428 16.3068 182.428 18.0284V19.4474H166.333V16.3281H177.992C177.983 15.4418 177.792 14.6534 177.417 13.9631C177.042 13.2642 176.518 12.7145 175.844 12.3139C175.179 11.9134 174.404 11.7131 173.518 11.7131C172.571 11.7131 171.741 11.9432 171.025 12.4034C170.309 12.8551 169.75 13.4517 169.35 14.1932C168.958 14.9261 168.758 15.7315 168.749 16.6094V19.3324C168.749 20.4744 168.958 21.4545 169.375 22.2727C169.793 23.0824 170.377 23.7045 171.127 24.1392C171.877 24.5653 172.755 24.7784 173.76 24.7784C174.434 24.7784 175.043 24.6847 175.589 24.4972C176.134 24.3011 176.607 24.0156 177.008 23.6406C177.408 23.2656 177.711 22.8011 177.915 22.2472L182.236 22.733C181.964 23.875 181.444 24.8722 180.677 25.7244C179.918 26.5682 178.946 27.2244 177.762 27.6932C176.577 28.1534 175.222 28.3835 173.696 28.3835ZM202.6 8.36364L195.608 28H190.494L183.501 8.36364H188.436L192.948 22.9503H193.153L197.679 8.36364H202.6ZM205.083 28V8.36364H209.711V28H205.083ZM207.41 5.5767C206.677 5.5767 206.046 5.33381 205.518 4.84801C204.989 4.35369 204.725 3.76136 204.725 3.07102C204.725 2.37216 204.989 1.77983 205.518 1.29403C206.046 0.799715 206.677 0.552556 207.41 0.552556C208.151 0.552556 208.782 0.799715 209.302 1.29403C209.83 1.77983 210.094 2.37216 210.094 3.07102C210.094 3.76136 209.83 4.35369 209.302 4.84801C208.782 5.33381 208.151 5.5767 207.41 5.5767ZM222.315 28.3835C220.355 28.3835 218.671 27.9531 217.265 27.0923C215.867 26.2315 214.789 25.0426 214.031 23.5256C213.281 22 212.906 20.2443 212.906 18.2585C212.906 16.2642 213.289 14.5043 214.056 12.9787C214.823 11.4446 215.906 10.2514 217.304 9.39915C218.71 8.53835 220.372 8.10795 222.289 8.10795C223.883 8.10795 225.294 8.40199 226.521 8.99006C227.757 9.5696 228.741 10.392 229.474 11.4574C230.207 12.5142 230.625 13.75 230.727 15.1648H226.304C226.125 14.2187 225.698 13.4304 225.025 12.7997C224.36 12.1605 223.47 11.8409 222.353 11.8409C221.407 11.8409 220.576 12.0966 219.86 12.608C219.144 13.1108 218.586 13.8352 218.186 14.7812C217.794 15.7273 217.598 16.8608 217.598 18.1818C217.598 19.5199 217.794 20.6705 218.186 21.6335C218.578 22.5881 219.127 23.3253 219.835 23.8452C220.551 24.3565 221.39 24.6122 222.353 24.6122C223.035 24.6122 223.644 24.4844 224.181 24.2287C224.727 23.9645 225.183 23.5852 225.549 23.0909C225.916 22.5966 226.167 21.9957 226.304 21.2884H230.727C230.616 22.6776 230.207 23.9091 229.5 24.983C228.792 26.0483 227.829 26.8835 226.61 27.4886C225.392 28.0852 223.96 28.3835 222.315 28.3835ZM242.5 28.3835C240.531 28.3835 238.831 27.9744 237.399 27.1562C235.976 26.3295 234.881 25.1619 234.114 23.6534C233.347 22.1364 232.963 20.3509 232.963 18.2969C232.963 16.277 233.347 14.5043 234.114 12.9787C234.889 11.4446 235.972 10.2514 237.361 9.39915C238.75 8.53835 240.382 8.10795 242.257 8.10795C243.467 8.10795 244.609 8.30398 245.683 8.69602C246.766 9.07954 247.72 9.67614 248.547 10.4858C249.382 11.2955 250.038 12.3267 250.516 13.5795C250.993 14.8239 251.232 16.3068 251.232 18.0284V19.4474H235.136V16.3281H246.796C246.787 15.4418 246.595 14.6534 246.22 13.9631C245.845 13.2642 245.321 12.7145 244.648 12.3139C243.983 11.9134 243.207 11.7131 242.321 11.7131C241.375 11.7131 240.544 11.9432 239.828 12.4034C239.112 12.8551 238.554 13.4517 238.153 14.1932C237.761 14.9261 237.561 15.7315 237.553 16.6094V19.3324C237.553 20.4744 237.761 21.4545 238.179 22.2727C238.597 23.0824 239.18 23.7045 239.93 24.1392C240.68 24.5653 241.558 24.7784 242.564 24.7784C243.237 24.7784 243.847 24.6847 244.392 24.4972C244.938 24.3011 245.411 24.0156 245.811 23.6406C246.212 23.2656 246.514 22.8011 246.719 22.2472L251.04 22.733C250.767 23.875 250.247 24.8722 249.48 25.7244C248.722 26.5682 247.75 27.2244 246.565 27.6932C245.381 28.1534 244.026 28.3835 242.5 28.3835ZM269.947 13.554L265.728 14.0142C265.609 13.5881 265.4 13.1875 265.101 12.8125C264.812 12.4375 264.42 12.1349 263.925 11.9048C263.431 11.6747 262.826 11.5597 262.11 11.5597C261.147 11.5597 260.337 11.7685 259.681 12.1861C259.033 12.6037 258.714 13.1449 258.722 13.8097C258.714 14.3807 258.922 14.8452 259.349 15.2031C259.783 15.5611 260.499 15.8551 261.496 16.0852L264.846 16.8011C266.704 17.2017 268.084 17.8366 268.988 18.706C269.9 19.5753 270.36 20.7131 270.369 22.1193C270.36 23.3551 269.998 24.446 269.282 25.392C268.574 26.3295 267.59 27.0625 266.329 27.5909C265.067 28.1193 263.619 28.3835 261.982 28.3835C259.579 28.3835 257.644 27.8807 256.178 26.875C254.712 25.8608 253.839 24.4503 253.557 22.6435L258.07 22.2088C258.275 23.0952 258.709 23.7642 259.374 24.2159C260.039 24.6676 260.904 24.8935 261.969 24.8935C263.069 24.8935 263.951 24.6676 264.616 24.2159C265.289 23.7642 265.626 23.206 265.626 22.5412C265.626 21.9787 265.408 21.5142 264.974 21.1477C264.547 20.7812 263.883 20.5 262.979 20.304L259.63 19.6009C257.746 19.2088 256.353 18.5483 255.449 17.6193C254.546 16.6818 254.099 15.4972 254.107 14.0653C254.099 12.8551 254.427 11.8068 255.092 10.9205C255.765 10.0256 256.698 9.33523 257.891 8.84943C259.093 8.35511 260.478 8.10795 262.046 8.10795C264.347 8.10795 266.158 8.59801 267.479 9.57812C268.809 10.5582 269.631 11.8835 269.947 13.554Z" fill="#181D27"/>
</svg>
