<svg width="221" height="35" viewBox="0 0 221 35" fill="none" xmlns="http://www.w3.org/2000/svg">
<path d="M9.45455 27H0.582386V0.818181H9.63352C12.233 0.818181 14.4659 1.34233 16.3324 2.39062C18.2074 3.4304 19.6477 4.92614 20.6534 6.87784C21.6591 8.82955 22.1619 11.1648 22.1619 13.8835C22.1619 16.6108 21.6548 18.9545 20.6406 20.9148C19.6349 22.875 18.1818 24.3793 16.2812 25.4276C14.3892 26.4759 12.1136 27 9.45455 27ZM5.32528 22.8963H9.22443C11.0483 22.8963 12.5696 22.5639 13.7884 21.8991C15.0071 21.2259 15.9233 20.2244 16.5369 18.8949C17.1506 17.5568 17.4574 15.8864 17.4574 13.8835C17.4574 11.8807 17.1506 10.2187 16.5369 8.89773C15.9233 7.56818 15.0156 6.57528 13.8139 5.91903C12.6207 5.25426 11.1378 4.92188 9.36506 4.92188H5.32528V22.8963ZM34.437 27.3835C32.4682 27.3835 30.7679 26.9744 29.3361 26.1562C27.9128 25.3295 26.8176 24.1619 26.0506 22.6534C25.2836 21.1364 24.9 19.3509 24.9 17.2969C24.9 15.277 25.2836 13.5043 26.0506 11.9787C26.8262 10.4446 27.9086 9.25142 29.2978 8.39915C30.687 7.53835 32.3191 7.10795 34.1941 7.10795C35.4043 7.10795 36.5463 7.30398 37.6202 7.69602C38.7026 8.07954 39.6571 8.67614 40.4838 9.4858C41.3191 10.2955 41.9753 11.3267 42.4526 12.5795C42.9299 13.8239 43.1685 15.3068 43.1685 17.0284V18.4474H27.0733V15.3281H38.7324C38.7239 14.4418 38.5321 13.6534 38.1571 12.9631C37.7821 12.2642 37.258 11.7145 36.5847 11.3139C35.9199 10.9134 35.1443 10.7131 34.258 10.7131C33.312 10.7131 32.481 10.9432 31.7651 11.4034C31.0492 11.8551 30.4909 12.4517 30.0904 13.1932C29.6983 13.9261 29.498 14.7315 29.4895 15.6094V18.3324C29.4895 19.4744 29.6983 20.4545 30.1159 21.2727C30.5336 22.0824 31.1174 22.7045 31.8674 23.1392C32.6174 23.5653 33.4952 23.7784 34.5009 23.7784C35.1742 23.7784 35.7836 23.6847 36.329 23.4972C36.8745 23.3011 37.3475 23.0156 37.748 22.6406C38.1486 22.2656 38.4512 21.8011 38.6557 21.2472L42.9767 21.733C42.704 22.875 42.1841 23.8722 41.4171 24.7244C40.6586 25.5682 39.687 26.2244 38.5023 26.6932C37.3176 27.1534 35.9625 27.3835 34.437 27.3835ZM63.3409 7.36364L56.348 27H51.2344L44.2415 7.36364H49.1761L53.6889 21.9503H53.8935L58.419 7.36364H63.3409ZM73.8485 27.3835C71.8798 27.3835 70.1795 26.9744 68.7477 26.1562C67.3244 25.3295 66.2292 24.1619 65.4622 22.6534C64.6951 21.1364 64.3116 19.3509 64.3116 17.2969C64.3116 15.277 64.6951 13.5043 65.4622 11.9787C66.2377 10.4446 67.3201 9.25142 68.7093 8.39915C70.0985 7.53835 71.7306 7.10795 73.6056 7.10795C74.8158 7.10795 75.9579 7.30398 77.0318 7.69602C78.1141 8.07954 79.0687 8.67614 79.8954 9.4858C80.7306 10.2955 81.3869 11.3267 81.8641 12.5795C82.3414 13.8239 82.5801 15.3068 82.5801 17.0284V18.4474H66.4849V15.3281H78.144C78.1355 14.4418 77.9437 13.6534 77.5687 12.9631C77.1937 12.2642 76.6695 11.7145 75.9962 11.3139C75.3315 10.9134 74.5559 10.7131 73.6695 10.7131C72.7235 10.7131 71.8926 10.9432 71.1766 11.4034C70.4607 11.8551 69.9025 12.4517 69.5019 13.1932C69.1099 13.9261 68.9096 14.7315 68.9011 15.6094V18.3324C68.9011 19.4744 69.1099 20.4545 69.5275 21.2727C69.9451 22.0824 70.5289 22.7045 71.2789 23.1392C72.0289 23.5653 72.9068 23.7784 73.9124 23.7784C74.5857 23.7784 75.1951 23.6847 75.7406 23.4972C76.286 23.3011 76.759 23.0156 77.1596 22.6406C77.5602 22.2656 77.8627 21.8011 78.0673 21.2472L82.3883 21.733C82.1156 22.875 81.5957 23.8722 80.8286 24.7244C80.0701 25.5682 79.0985 26.2244 77.9139 26.6932C76.7292 27.1534 75.3741 27.3835 73.8485 27.3835ZM90.403 0.818181V27H85.7752V0.818181H90.403ZM103.007 27.3835C101.09 27.3835 99.4277 26.9616 98.0215 26.1179C96.6152 25.2741 95.5243 24.0937 94.7487 22.5767C93.9817 21.0597 93.5982 19.2869 93.5982 17.2585C93.5982 15.2301 93.9817 13.4531 94.7487 11.9276C95.5243 10.402 96.6152 9.21733 98.0215 8.37358C99.4277 7.52983 101.09 7.10795 103.007 7.10795C104.925 7.10795 106.587 7.52983 107.993 8.37358C109.399 9.21733 110.486 10.402 111.253 11.9276C112.029 13.4531 112.416 15.2301 112.416 17.2585C112.416 19.2869 112.029 21.0597 111.253 22.5767C110.486 24.0937 109.399 25.2741 107.993 26.1179C106.587 26.9616 104.925 27.3835 103.007 27.3835ZM103.033 23.6761C104.073 23.6761 104.942 23.3906 105.641 22.8196C106.34 22.2401 106.86 21.4645 107.2 20.4929C107.55 19.5213 107.725 18.4389 107.725 17.2457C107.725 16.044 107.55 14.9574 107.2 13.9858C106.86 13.0057 106.34 12.2259 105.641 11.6463C104.942 11.0668 104.073 10.777 103.033 10.777C101.967 10.777 101.081 11.0668 100.374 11.6463C99.6749 12.2259 99.1507 13.0057 98.8013 13.9858C98.4604 14.9574 98.2899 16.044 98.2899 17.2457C98.2899 18.4389 98.4604 19.5213 98.8013 20.4929C99.1507 21.4645 99.6749 22.2401 100.374 22.8196C101.081 23.3906 101.967 23.6761 103.033 23.6761ZM115.624 34.3636V7.36364H120.175V10.6108H120.444C120.682 10.1335 121.019 9.62642 121.454 9.08949C121.888 8.54403 122.477 8.07954 123.218 7.69602C123.959 7.30398 124.905 7.10795 126.056 7.10795C127.573 7.10795 128.941 7.49574 130.16 8.27131C131.387 9.03835 132.359 10.1761 133.075 11.6847C133.799 13.1847 134.161 15.0256 134.161 17.2074C134.161 19.3636 133.807 21.196 133.1 22.7045C132.393 24.2131 131.43 25.3636 130.211 26.1562C128.992 26.9489 127.611 27.3452 126.069 27.3452C124.944 27.3452 124.011 27.1577 123.269 26.7827C122.528 26.4077 121.931 25.956 121.479 25.4276C121.036 24.8906 120.691 24.3835 120.444 23.9062H120.252V34.3636H115.624ZM120.163 17.1818C120.163 18.4517 120.342 19.5639 120.7 20.5185C121.066 21.473 121.59 22.2187 122.272 22.7557C122.962 23.2841 123.798 23.5483 124.778 23.5483C125.8 23.5483 126.657 23.2756 127.347 22.7301C128.038 22.1761 128.557 21.4219 128.907 20.4673C129.265 19.5043 129.444 18.4091 129.444 17.1818C129.444 15.9631 129.269 14.8807 128.92 13.9347C128.57 12.9886 128.05 12.2472 127.36 11.7102C126.67 11.1733 125.809 10.9048 124.778 10.9048C123.789 10.9048 122.95 11.1648 122.259 11.6847C121.569 12.2045 121.045 12.9332 120.687 13.8707C120.337 14.8082 120.163 15.9119 120.163 17.1818ZM137.404 27V7.36364H141.828V10.7003H142.058C142.467 9.57528 143.144 8.69744 144.09 8.06676C145.036 7.42756 146.166 7.10795 147.478 7.10795C148.808 7.10795 149.928 7.43182 150.84 8.07955C151.761 8.71875 152.409 9.59233 152.784 10.7003H152.988C153.423 9.60937 154.156 8.74006 155.187 8.09233C156.227 7.43608 157.458 7.10795 158.882 7.10795C160.688 7.10795 162.163 7.67898 163.305 8.82102C164.447 9.96307 165.018 11.6293 165.018 13.8196V27H160.377V14.5355C160.377 13.3168 160.053 12.4261 159.406 11.8636C158.758 11.2926 157.965 11.0071 157.028 11.0071C155.911 11.0071 155.038 11.3565 154.407 12.0554C153.785 12.7457 153.474 13.6449 153.474 14.7528V27H148.936V14.3438C148.936 13.3295 148.629 12.5199 148.015 11.9148C147.41 11.3097 146.617 11.0071 145.637 11.0071C144.972 11.0071 144.367 11.1776 143.822 11.5185C143.276 11.8509 142.842 12.3239 142.518 12.9375C142.194 13.5426 142.032 14.25 142.032 15.0597V27H137.404ZM177.686 27.3835C175.717 27.3835 174.017 26.9744 172.585 26.1562C171.162 25.3295 170.067 24.1619 169.3 22.6534C168.533 21.1364 168.149 19.3509 168.149 17.2969C168.149 15.277 168.533 13.5043 169.3 11.9787C170.075 10.4446 171.158 9.25142 172.547 8.39915C173.936 7.53835 175.568 7.10795 177.443 7.10795C178.653 7.10795 179.795 7.30398 180.869 7.69602C181.952 8.07954 182.906 8.67614 183.733 9.4858C184.568 10.2955 185.224 11.3267 185.702 12.5795C186.179 13.8239 186.418 15.3068 186.418 17.0284V18.4474H170.322V15.3281H181.981C181.973 14.4418 181.781 13.6534 181.406 12.9631C181.031 12.2642 180.507 11.7145 179.834 11.3139C179.169 10.9134 178.393 10.7131 177.507 10.7131C176.561 10.7131 175.73 10.9432 175.014 11.4034C174.298 11.8551 173.74 12.4517 173.339 13.1932C172.947 13.9261 172.747 14.7315 172.739 15.6094V18.3324C172.739 19.4744 172.947 20.4545 173.365 21.2727C173.783 22.0824 174.366 22.7045 175.116 23.1392C175.866 23.5653 176.744 23.7784 177.75 23.7784C178.423 23.7784 179.033 23.6847 179.578 23.4972C180.124 23.3011 180.597 23.0156 180.997 22.6406C181.398 22.2656 181.7 21.8011 181.905 21.2472L186.226 21.733C185.953 22.875 185.433 23.8722 184.666 24.7244C183.908 25.5682 182.936 26.2244 181.751 26.6932C180.567 27.1534 179.212 27.3835 177.686 27.3835ZM194.241 15.4943V27H189.613V7.36364H194.036V10.7003H194.266C194.718 9.60085 195.438 8.72727 196.427 8.07955C197.424 7.43182 198.655 7.10795 200.121 7.10795C201.476 7.10795 202.657 7.39773 203.662 7.97727C204.677 8.55682 205.461 9.39631 206.015 10.4957C206.577 11.5952 206.854 12.929 206.846 14.4972V27H202.218V15.2131C202.218 13.9006 201.877 12.8736 201.195 12.1321C200.522 11.3906 199.589 11.0199 198.395 11.0199C197.586 11.0199 196.866 11.1989 196.235 11.5568C195.613 11.9062 195.123 12.4134 194.765 13.0781C194.415 13.7429 194.241 14.5483 194.241 15.4943ZM220.636 7.36364V10.9432H209.347V7.36364H220.636ZM212.134 2.65909H216.762V21.0938C216.762 21.7159 216.856 22.1932 217.043 22.5256C217.239 22.8494 217.495 23.071 217.81 23.1903C218.126 23.3097 218.475 23.3693 218.859 23.3693C219.148 23.3693 219.413 23.348 219.651 23.3054C219.898 23.2628 220.086 23.2244 220.214 23.1903L220.994 26.8082C220.746 26.8935 220.393 26.9872 219.932 27.0895C219.481 27.1918 218.927 27.2514 218.271 27.2685C217.111 27.3026 216.067 27.1278 215.138 26.7443C214.209 26.3523 213.472 25.7472 212.927 24.929C212.39 24.1108 212.126 23.0881 212.134 21.8608V2.65909Z" fill="#181D27"/>
</svg>
