<svg width="120" height="35" viewBox="0 0 120 35" fill="none" xmlns="http://www.w3.org/2000/svg">
<path d="M5.32528 0.818181V27H0.582386V0.818181H5.32528ZM9.53675 27V7.36364H13.96V10.7003H14.1902C14.5992 9.57528 15.2768 8.69744 16.2228 8.06676C17.1688 7.42756 18.2981 7.10795 19.6106 7.10795C20.9402 7.10795 22.0609 7.43182 22.9728 8.07955C23.8933 8.71875 24.541 9.59233 24.916 10.7003H25.1206C25.5552 9.60937 26.2882 8.74006 27.3194 8.09233C28.3592 7.43608 29.5907 7.10795 31.014 7.10795C32.8208 7.10795 34.2953 7.67898 35.4373 8.82102C36.5794 9.96307 37.1504 11.6293 37.1504 13.8196V27H32.5098V14.5355C32.5098 13.3168 32.1859 12.4261 31.5382 11.8636C30.8904 11.2926 30.0978 11.0071 29.1603 11.0071C28.0438 11.0071 27.1703 11.3565 26.5396 12.0554C25.9174 12.7457 25.6063 13.6449 25.6063 14.7528V27H21.068V14.3438C21.068 13.3295 20.7612 12.5199 20.1475 11.9148C19.5424 11.3097 18.7498 11.0071 17.7697 11.0071C17.1049 11.0071 16.4998 11.1776 15.9544 11.5185C15.4089 11.8509 14.9742 12.3239 14.6504 12.9375C14.3265 13.5426 14.1646 14.25 14.1646 15.0597V27H9.53675ZM46.7759 27.3963C45.5316 27.3963 44.4109 27.1747 43.4137 26.7315C42.4251 26.2798 41.641 25.6151 41.0614 24.7372C40.4904 23.8594 40.2049 22.777 40.2049 21.4901C40.2049 20.3821 40.4094 19.4659 40.8185 18.7415C41.2276 18.017 41.7859 17.4375 42.4932 17.0028C43.2006 16.5682 43.9975 16.2401 44.8839 16.0185C45.7788 15.7884 46.7035 15.6222 47.658 15.5199C48.8086 15.4006 49.7418 15.294 50.4577 15.2003C51.1736 15.098 51.6935 14.9446 52.0174 14.7401C52.3498 14.527 52.516 14.1989 52.516 13.7557V13.679C52.516 12.7159 52.2305 11.9702 51.6594 11.4418C51.0884 10.9134 50.266 10.6491 49.1921 10.6491C48.0586 10.6491 47.1594 10.8963 46.4947 11.3906C45.8384 11.8849 45.3952 12.4687 45.1651 13.142L40.8441 12.5284C41.185 11.3352 41.7475 10.3381 42.5316 9.53693C43.3157 8.72727 44.2745 8.12216 45.408 7.72159C46.5415 7.3125 47.7944 7.10795 49.1665 7.10795C50.1126 7.10795 51.0543 7.21875 51.9918 7.44034C52.9293 7.66193 53.7859 8.02841 54.5614 8.53977C55.337 9.04261 55.9592 9.72869 56.4279 10.598C56.9052 11.4673 57.1438 12.554 57.1438 13.858V27H52.6949V24.3026H52.5415C52.2603 24.848 51.864 25.3594 51.3526 25.8366C50.8498 26.3054 50.2148 26.6847 49.4478 26.9744C48.6893 27.2557 47.7986 27.3963 46.7759 27.3963ZM47.9776 23.9957C48.9066 23.9957 49.712 23.8125 50.3938 23.446C51.0756 23.071 51.5998 22.5767 51.9663 21.9631C52.3413 21.3494 52.5288 20.6804 52.5288 19.956V17.642C52.3839 17.7614 52.1367 17.8722 51.7873 17.9744C51.4464 18.0767 51.0628 18.1662 50.6367 18.2429C50.2106 18.3196 49.7887 18.3878 49.3711 18.4474C48.9535 18.5071 48.5913 18.5582 48.2844 18.6009C47.5941 18.6946 46.9762 18.848 46.4307 19.0611C45.8853 19.2741 45.4549 19.5724 45.1395 19.956C44.8242 20.331 44.6665 20.8168 44.6665 21.4134C44.6665 22.2656 44.9776 22.9091 45.5998 23.3438C46.2219 23.7784 47.0145 23.9957 47.9776 23.9957ZM69.617 34.7727C67.9551 34.7727 66.5275 34.5469 65.3343 34.0952C64.1411 33.652 63.1823 33.0554 62.4579 32.3054C61.7335 31.5554 61.2306 30.7244 60.9494 29.8125L65.117 28.8026C65.3045 29.1861 65.5772 29.5653 65.9352 29.9403C66.2931 30.3239 66.7747 30.6392 67.3798 30.8864C67.9934 31.142 68.7647 31.2699 69.6937 31.2699C71.0062 31.2699 72.0928 30.9503 72.9536 30.3111C73.8144 29.6804 74.2448 28.6406 74.2448 27.1918V23.4716H74.0147C73.7761 23.9489 73.4266 24.4389 72.9664 24.9418C72.5147 25.4446 71.9139 25.8665 71.1639 26.2074C70.4224 26.5483 69.4891 26.7188 68.3641 26.7188C66.8556 26.7188 65.4877 26.3651 64.2605 25.6577C63.0417 24.9418 62.0701 23.8764 61.3457 22.4616C60.6298 21.0384 60.2718 19.2571 60.2718 17.1179C60.2718 14.9616 60.6298 13.142 61.3457 11.6591C62.0701 10.1676 63.046 9.03835 64.2732 8.27131C65.5005 7.49574 66.8684 7.10795 68.3769 7.10795C69.5275 7.10795 70.4735 7.30398 71.215 7.69602C71.965 8.07954 72.5616 8.54403 73.0048 9.08949C73.448 9.62642 73.7846 10.1335 74.0147 10.6108H74.2704V7.36364H78.8343V27.3196C78.8343 28.9986 78.4338 30.3878 77.6326 31.4872C76.8315 32.5866 75.7363 33.4091 74.3471 33.9545C72.9579 34.5 71.3812 34.7727 69.617 34.7727ZM69.6553 23.0881C70.6355 23.0881 71.4707 22.8494 72.161 22.3722C72.8514 21.8949 73.3755 21.2088 73.7335 20.3139C74.0914 19.419 74.2704 18.3452 74.2704 17.0923C74.2704 15.8565 74.0914 14.7741 73.7335 13.8452C73.384 12.9162 72.8641 12.196 72.1738 11.6847C71.492 11.1648 70.6525 10.9048 69.6553 10.9048C68.6241 10.9048 67.7633 11.1733 67.073 11.7102C66.3826 12.2472 65.8627 12.9844 65.5133 13.9219C65.1639 14.8509 64.9891 15.9077 64.9891 17.0923C64.9891 18.294 65.1639 19.3466 65.5133 20.25C65.8713 21.1449 66.3954 21.8437 67.0857 22.3466C67.7846 22.8409 68.6411 23.0881 69.6553 23.0881ZM91.5504 27.3835C89.5817 27.3835 87.8814 26.9744 86.4495 26.1562C85.0263 25.3295 83.9311 24.1619 83.164 22.6534C82.397 21.1364 82.0135 19.3509 82.0135 17.2969C82.0135 15.277 82.397 13.5043 83.164 11.9787C83.9396 10.4446 85.022 9.25142 86.4112 8.39915C87.8004 7.53835 89.4325 7.10795 91.3075 7.10795C92.5177 7.10795 93.6598 7.30398 94.7336 7.69602C95.816 8.07954 96.7706 8.67614 97.5973 9.4858C98.4325 10.2955 99.0888 11.3267 99.566 12.5795C100.043 13.8239 100.282 15.3068 100.282 17.0284V18.4474H84.1868V15.3281H95.8459C95.8373 14.4418 95.6456 13.6534 95.2706 12.9631C94.8956 12.2642 94.3714 11.7145 93.6981 11.3139C93.0334 10.9134 92.2578 10.7131 91.3714 10.7131C90.4254 10.7131 89.5944 10.9432 88.8785 11.4034C88.1626 11.8551 87.6044 12.4517 87.2038 13.1932C86.8118 13.9261 86.6115 14.7315 86.603 15.6094V18.3324C86.603 19.4744 86.8118 20.4545 87.2294 21.2727C87.647 22.0824 88.2308 22.7045 88.9808 23.1392C89.7308 23.5653 90.6086 23.7784 91.6143 23.7784C92.2876 23.7784 92.897 23.6847 93.4424 23.4972C93.9879 23.3011 94.4609 23.0156 94.8615 22.6406C95.262 22.2656 95.5646 21.8011 95.7692 21.2472L100.09 21.733C99.8174 22.875 99.2976 23.8722 98.5305 24.7244C97.772 25.5682 96.8004 26.2244 95.6157 26.6932C94.4311 27.1534 93.076 27.3835 91.5504 27.3835ZM118.997 12.554L114.778 13.0142C114.659 12.5881 114.45 12.1875 114.152 11.8125C113.862 11.4375 113.47 11.1349 112.976 10.9048C112.481 10.6747 111.876 10.5597 111.16 10.5597C110.197 10.5597 109.388 10.7685 108.731 11.1861C108.084 11.6037 107.764 12.1449 107.773 12.8097C107.764 13.3807 107.973 13.8452 108.399 14.2031C108.834 14.5611 109.55 14.8551 110.547 15.0852L113.896 15.8011C115.754 16.2017 117.135 16.8366 118.038 17.706C118.95 18.5753 119.41 19.7131 119.419 21.1193C119.41 22.3551 119.048 23.446 118.332 24.392C117.625 25.3295 116.64 26.0625 115.379 26.5909C114.118 27.1193 112.669 27.3835 111.032 27.3835C108.629 27.3835 106.694 26.8807 105.228 25.875C103.763 24.8608 102.889 23.4503 102.608 21.6435L107.121 21.2088C107.325 22.0952 107.76 22.7642 108.425 23.2159C109.089 23.6676 109.954 23.8935 111.02 23.8935C112.119 23.8935 113.001 23.6676 113.666 23.2159C114.339 22.7642 114.676 22.206 114.676 21.5412C114.676 20.9787 114.459 20.5142 114.024 20.1477C113.598 19.7812 112.933 19.5 112.03 19.304L108.68 18.6009C106.797 18.2088 105.403 17.5483 104.5 16.6193C103.596 15.6818 103.149 14.4972 103.157 13.0653C103.149 11.8551 103.477 10.8068 104.142 9.92045C104.815 9.02557 105.748 8.33523 106.942 7.84943C108.143 7.35511 109.528 7.10795 111.096 7.10795C113.398 7.10795 115.209 7.59801 116.53 8.57812C117.859 9.55824 118.682 10.8835 118.997 12.554Z" fill="#181D27"/>
</svg>
