<svg width="299" height="29" viewBox="0 0 299 29" fill="none" xmlns="http://www.w3.org/2000/svg">
<path d="M5.9446 28H0.882102L10.0994 1.81818H15.9545L25.1847 28H20.1222L13.1293 7.1875H12.9247L5.9446 28ZM6.1108 17.7344H19.9176V21.544H6.1108V17.7344ZM32.3365 1.81818V28H27.7086V1.81818H32.3365ZM45.0685 28.3835C43.0998 28.3835 41.3995 27.9744 39.9677 27.1562C38.5444 26.3295 37.4492 25.1619 36.6822 23.6534C35.9151 22.1364 35.5316 20.3509 35.5316 18.2969C35.5316 16.277 35.9151 14.5043 36.6822 12.9787C37.4577 11.4446 38.5401 10.2514 39.9293 9.39915C41.3185 8.53835 42.9506 8.10795 44.8256 8.10795C46.0359 8.10795 47.1779 8.30398 48.2518 8.69602C49.3341 9.07954 50.2887 9.67614 51.1154 10.4858C51.9506 11.2955 52.6069 12.3267 53.0842 13.5795C53.5614 14.8239 53.8001 16.3068 53.8001 18.0284V19.4474H37.7049V16.3281H49.364C49.3555 15.4418 49.1637 14.6534 48.7887 13.9631C48.4137 13.2642 47.8895 12.7145 47.2163 12.3139C46.5515 11.9134 45.7759 11.7131 44.8895 11.7131C43.9435 11.7131 43.1126 11.9432 42.3966 12.4034C41.6807 12.8551 41.1225 13.4517 40.7219 14.1932C40.3299 14.9261 40.1296 15.7315 40.1211 16.6094V19.3324C40.1211 20.4744 40.3299 21.4545 40.7475 22.2727C41.1651 23.0824 41.7489 23.7045 42.4989 24.1392C43.2489 24.5653 44.1268 24.7784 45.1324 24.7784C45.8057 24.7784 46.4151 24.6847 46.9606 24.4972C47.506 24.3011 47.979 24.0156 48.3796 23.6406C48.7802 23.2656 49.0827 22.8011 49.2873 22.2472L53.6083 22.733C53.3356 23.875 52.8157 24.8722 52.0486 25.7244C51.2901 26.5682 50.3185 27.2244 49.1339 27.6932C47.9492 28.1534 46.5941 28.3835 45.0685 28.3835ZM56.9952 28V8.36364H61.4824V11.6364H61.6869C62.0449 10.5028 62.6585 9.62926 63.5279 9.01562C64.4057 8.39347 65.4071 8.08239 66.5321 8.08239C66.7878 8.08239 67.0733 8.09517 67.3887 8.12074C67.7125 8.13778 67.981 8.16761 68.194 8.21023V12.4673C67.998 12.3991 67.6869 12.3395 67.2608 12.2884C66.8432 12.2287 66.4384 12.1989 66.0463 12.1989C65.2026 12.1989 64.444 12.3821 63.7708 12.7486C63.106 13.1065 62.5818 13.6051 62.1983 14.2443C61.8148 14.8835 61.623 15.6207 61.623 16.456V28H56.9952ZM81.4087 8.36364V11.9432H70.1204V8.36364H81.4087ZM72.9073 3.65909H77.5351V22.0938C77.5351 22.7159 77.6289 23.1932 77.8164 23.5256C78.0124 23.8494 78.2681 24.071 78.5834 24.1903C78.8988 24.3097 79.2482 24.3693 79.6317 24.3693C79.9215 24.3693 80.1857 24.348 80.4243 24.3054C80.6715 24.2628 80.859 24.2244 80.9868 24.1903L81.7667 27.8082C81.5195 27.8935 81.1658 27.9872 80.7056 28.0895C80.2539 28.1918 79.6999 28.2514 79.0437 28.2685C77.8846 28.3026 76.8405 28.1278 75.9116 27.7443C74.9826 27.3523 74.2454 26.7472 73.6999 25.929C73.163 25.1108 72.8988 24.0881 72.9073 22.8608V3.65909ZM99.7977 13.554L95.579 14.0142C95.4597 13.5881 95.2509 13.1875 94.9526 12.8125C94.6628 12.4375 94.2707 12.1349 93.7764 11.9048C93.2821 11.6747 92.677 11.5597 91.9611 11.5597C90.998 11.5597 90.1884 11.7685 89.5321 12.1861C88.8844 12.6037 88.5648 13.1449 88.5733 13.8097C88.5648 14.3807 88.7736 14.8452 89.1997 15.2031C89.6344 15.5611 90.3503 15.8551 91.3474 16.0852L94.6969 16.8011C96.5548 17.2017 97.9355 17.8366 98.8389 18.706C99.7509 19.5753 100.211 20.7131 100.22 22.1193C100.211 23.3551 99.8489 24.446 99.133 25.392C98.4256 26.3295 97.4412 27.0625 96.1798 27.5909C94.9185 28.1193 93.4696 28.3835 91.8332 28.3835C89.4298 28.3835 87.4952 27.8807 86.0293 26.875C84.5634 25.8608 83.6898 24.4503 83.4085 22.6435L87.9213 22.2088C88.1259 23.0952 88.5605 23.7642 89.2253 24.2159C89.8901 24.6676 90.7551 24.8935 91.8205 24.8935C92.9199 24.8935 93.802 24.6676 94.4668 24.2159C95.1401 23.7642 95.4767 23.206 95.4767 22.5412C95.4767 21.9787 95.2594 21.5142 94.8247 21.1477C94.3986 20.7812 93.7338 20.5 92.8304 20.304L89.481 19.6009C87.5974 19.2088 86.204 18.5483 85.3006 17.6193C84.3972 16.6818 83.9497 15.4972 83.9582 14.0653C83.9497 12.8551 84.2778 11.8068 84.9426 10.9205C85.6159 10.0256 86.5491 9.33523 87.7423 8.84943C88.944 8.35511 90.329 8.10795 91.8972 8.10795C94.1983 8.10795 96.0094 8.59801 97.3304 9.57812C98.6599 10.5582 99.4824 11.8835 99.7977 13.554ZM119.349 28.3835C117.559 28.3835 116.021 28.0597 114.734 27.4119C113.447 26.7642 112.454 25.8906 111.755 24.7912C111.065 23.6832 110.72 22.4347 110.72 21.0455C110.72 19.9972 110.933 19.0682 111.359 18.2585C111.794 17.4489 112.39 16.6989 113.149 16.0085C113.916 15.3182 114.802 14.6321 115.808 13.9503L120.449 10.7926C121.13 10.3494 121.646 9.88068 121.996 9.38636C122.353 8.89204 122.532 8.3125 122.532 7.64773C122.532 7.08523 122.294 6.55256 121.817 6.04972C121.348 5.54688 120.7 5.29545 119.873 5.29545C119.319 5.29545 118.829 5.42756 118.403 5.69176C117.986 5.94744 117.657 6.28409 117.419 6.7017C117.189 7.11932 117.074 7.5625 117.074 8.03125C117.074 8.60227 117.231 9.18182 117.547 9.76989C117.871 10.358 118.288 10.9673 118.799 11.598C119.319 12.2287 119.873 12.8977 120.461 13.6051L132.747 28H127.736L117.534 16.3153C116.775 15.429 116.042 14.5554 115.335 13.6946C114.636 12.8338 114.061 11.9389 113.609 11.0099C113.166 10.0724 112.944 9.05824 112.944 7.96733C112.944 6.73153 113.23 5.62784 113.801 4.65625C114.372 3.67614 115.169 2.90483 116.192 2.34233C117.223 1.77983 118.429 1.49858 119.809 1.49858C121.19 1.49858 122.375 1.77131 123.363 2.31676C124.352 2.86221 125.115 3.58665 125.652 4.49006C126.189 5.39347 126.457 6.37784 126.457 7.44318C126.457 8.67898 126.15 9.78693 125.537 10.767C124.923 11.7386 124.071 12.6207 122.98 13.4134L117.687 17.2869C116.818 17.9176 116.196 18.5568 115.821 19.2045C115.446 19.8437 115.258 20.3892 115.258 20.8409C115.258 21.5312 115.433 22.1577 115.782 22.7202C116.132 23.2827 116.622 23.7344 117.253 24.0753C117.892 24.4077 118.638 24.5739 119.49 24.5739C120.427 24.5739 121.352 24.3651 122.264 23.9474C123.176 23.5213 124.007 22.9162 124.757 22.1321C125.507 21.348 126.103 20.4105 126.547 19.3196C126.99 18.2202 127.211 17.0014 127.211 15.6634H131.187C131.187 17.3168 131.004 18.7571 130.638 19.9844C130.271 21.2031 129.798 22.2344 129.219 23.0781C128.639 23.9134 128.025 24.5824 127.378 25.0852C127.173 25.2301 126.977 25.375 126.79 25.5199C126.602 25.6648 126.406 25.8097 126.201 25.9545C125.281 26.7898 124.203 27.4034 122.967 27.7955C121.74 28.1875 120.534 28.3835 119.349 28.3835ZM152.832 8.36364V11.9432H141.224V8.36364H152.832ZM144.126 28V6.50994C144.126 5.18892 144.399 4.08949 144.944 3.21165C145.498 2.33381 146.24 1.67756 147.169 1.2429C148.098 0.808237 149.129 0.590907 150.263 0.590907C151.064 0.590907 151.775 0.654828 152.397 0.78267C153.02 0.910511 153.48 1.02557 153.778 1.12784L152.858 4.70739C152.662 4.64773 152.415 4.58807 152.116 4.52841C151.818 4.46023 151.486 4.42614 151.119 4.42614C150.258 4.42614 149.649 4.63494 149.291 5.05256C148.942 5.46165 148.767 6.04971 148.767 6.81676V28H144.126ZM163.691 28.3835C161.723 28.3835 160.022 27.9744 158.59 27.1562C157.167 26.3295 156.072 25.1619 155.305 23.6534C154.538 22.1364 154.154 20.3509 154.154 18.2969C154.154 16.277 154.538 14.5043 155.305 12.9787C156.081 11.4446 157.163 10.2514 158.552 9.39915C159.941 8.53835 161.573 8.10795 163.448 8.10795C164.659 8.10795 165.801 8.30398 166.875 8.69602C167.957 9.07954 168.912 9.67614 169.738 10.4858C170.573 11.2955 171.23 12.3267 171.707 13.5795C172.184 14.8239 172.423 16.3068 172.423 18.0284V19.4474H156.328V16.3281H167.987C167.978 15.4418 167.787 14.6534 167.412 13.9631C167.037 13.2642 166.512 12.7145 165.839 12.3139C165.174 11.9134 164.399 11.7131 163.512 11.7131C162.566 11.7131 161.735 11.9432 161.019 12.4034C160.304 12.8551 159.745 13.4517 159.345 14.1932C158.953 14.9261 158.752 15.7315 158.744 16.6094V19.3324C158.744 20.4744 158.953 21.4545 159.37 22.2727C159.788 23.0824 160.372 23.7045 161.122 24.1392C161.872 24.5653 162.75 24.7784 163.755 24.7784C164.429 24.7784 165.038 24.6847 165.583 24.4972C166.129 24.3011 166.602 24.0156 167.002 23.6406C167.403 23.2656 167.706 22.8011 167.91 22.2472L172.231 22.733C171.958 23.875 171.438 24.8722 170.671 25.7244C169.913 26.5682 168.941 27.2244 167.757 27.6932C166.572 28.1534 165.217 28.3835 163.691 28.3835ZM184.311 28.3835C182.342 28.3835 180.642 27.9744 179.21 27.1562C177.787 26.3295 176.692 25.1619 175.925 23.6534C175.158 22.1364 174.774 20.3509 174.774 18.2969C174.774 16.277 175.158 14.5043 175.925 12.9787C176.7 11.4446 177.783 10.2514 179.172 9.39915C180.561 8.53835 182.193 8.10795 184.068 8.10795C185.279 8.10795 186.421 8.30398 187.494 8.69602C188.577 9.07954 189.531 9.67614 190.358 10.4858C191.193 11.2955 191.85 12.3267 192.327 13.5795C192.804 14.8239 193.043 16.3068 193.043 18.0284V19.4474H176.948V16.3281H188.607C188.598 15.4418 188.406 14.6534 188.031 13.9631C187.656 13.2642 187.132 12.7145 186.459 12.3139C185.794 11.9134 185.019 11.7131 184.132 11.7131C183.186 11.7131 182.355 11.9432 181.639 12.4034C180.923 12.8551 180.365 13.4517 179.965 14.1932C179.573 14.9261 179.372 15.7315 179.364 16.6094V19.3324C179.364 20.4744 179.573 21.4545 179.99 22.2727C180.408 23.0824 180.992 23.7045 181.742 24.1392C182.492 24.5653 183.369 24.7784 184.375 24.7784C185.048 24.7784 185.658 24.6847 186.203 24.4972C186.749 24.3011 187.222 24.0156 187.622 23.6406C188.023 23.2656 188.325 22.8011 188.53 22.2472L192.851 22.733C192.578 23.875 192.058 24.8722 191.291 25.7244C190.533 26.5682 189.561 27.2244 188.377 27.6932C187.192 28.1534 185.837 28.3835 184.311 28.3835ZM203.525 28.3452C201.982 28.3452 200.601 27.9489 199.383 27.1562C198.164 26.3636 197.201 25.2131 196.494 23.7045C195.786 22.196 195.432 20.3636 195.432 18.2074C195.432 16.0256 195.79 14.1847 196.506 12.6847C197.231 11.1761 198.207 10.0384 199.434 9.27131C200.661 8.49574 202.029 8.10795 203.538 8.10795C204.688 8.10795 205.634 8.30398 206.376 8.69602C207.117 9.07954 207.705 9.54403 208.14 10.0895C208.574 10.6264 208.911 11.1335 209.15 11.6108H209.342V1.81818H213.982V28H209.431V24.9062H209.15C208.911 25.3835 208.566 25.8906 208.114 26.4276C207.663 26.956 207.066 27.4077 206.324 27.7827C205.583 28.1577 204.65 28.3452 203.525 28.3452ZM204.816 24.5483C205.796 24.5483 206.631 24.2841 207.322 23.7557C208.012 23.2187 208.536 22.473 208.894 21.5185C209.252 20.5639 209.431 19.4517 209.431 18.1818C209.431 16.9119 209.252 15.8082 208.894 14.8707C208.545 13.9332 208.025 13.2045 207.334 12.6847C206.653 12.1648 205.813 11.9048 204.816 11.9048C203.785 11.9048 202.924 12.1733 202.234 12.7102C201.543 13.2472 201.023 13.9886 200.674 14.9347C200.324 15.8807 200.15 16.9631 200.15 18.1818C200.15 19.4091 200.324 20.5043 200.674 21.4673C201.032 22.4219 201.556 23.1761 202.246 23.7301C202.945 24.2756 203.802 24.5483 204.816 24.5483ZM218.398 28V1.81818H223.026V11.6108H223.218C223.456 11.1335 223.793 10.6264 224.228 10.0895C224.662 9.54403 225.25 9.07954 225.992 8.69602C226.733 8.30398 227.679 8.10795 228.83 8.10795C230.347 8.10795 231.715 8.49574 232.934 9.27131C234.161 10.0384 235.133 11.1761 235.848 12.6847C236.573 14.1847 236.935 16.0256 236.935 18.2074C236.935 20.3636 236.581 22.196 235.874 23.7045C235.167 25.2131 234.204 26.3636 232.985 27.1562C231.766 27.9489 230.385 28.3452 228.843 28.3452C227.718 28.3452 226.785 28.1577 226.043 27.7827C225.302 27.4077 224.705 26.956 224.253 26.4276C223.81 25.8906 223.465 25.3835 223.218 24.9062H222.949V28H218.398ZM222.937 18.1818C222.937 19.4517 223.115 20.5639 223.473 21.5185C223.84 22.473 224.364 23.2187 225.046 23.7557C225.736 24.2841 226.571 24.5483 227.552 24.5483C228.574 24.5483 229.431 24.2756 230.121 23.7301C230.812 23.1761 231.331 22.4219 231.681 21.4673C232.039 20.5043 232.218 19.4091 232.218 18.1818C232.218 16.9631 232.043 15.8807 231.694 14.9347C231.344 13.9886 230.824 13.2472 230.134 12.7102C229.444 12.1733 228.583 11.9048 227.552 11.9048C226.563 11.9048 225.723 12.1648 225.033 12.6847C224.343 13.2045 223.819 13.9332 223.461 14.8707C223.111 15.8082 222.937 16.9119 222.937 18.1818ZM245.8 28.3963C244.556 28.3963 243.435 28.1747 242.438 27.7315C241.449 27.2798 240.665 26.6151 240.085 25.7372C239.514 24.8594 239.229 23.777 239.229 22.4901C239.229 21.3821 239.433 20.4659 239.843 19.7415C240.252 19.017 240.81 18.4375 241.517 18.0028C242.225 17.5682 243.022 17.2401 243.908 17.0185C244.803 16.7884 245.728 16.6222 246.682 16.5199C247.833 16.4006 248.766 16.294 249.482 16.2003C250.198 16.098 250.718 15.9446 251.041 15.7401C251.374 15.527 251.54 15.1989 251.54 14.7557V14.679C251.54 13.7159 251.255 12.9702 250.683 12.4418C250.112 11.9134 249.29 11.6491 248.216 11.6491C247.083 11.6491 246.183 11.8963 245.519 12.3906C244.862 12.8849 244.419 13.4687 244.189 14.142L239.868 13.5284C240.209 12.3352 240.772 11.3381 241.556 10.5369C242.34 9.72727 243.299 9.12216 244.432 8.72159C245.566 8.3125 246.818 8.10795 248.191 8.10795C249.137 8.10795 250.078 8.21875 251.016 8.44034C251.953 8.66193 252.81 9.02841 253.585 9.53977C254.361 10.0426 254.983 10.7287 255.452 11.598C255.929 12.4673 256.168 13.554 256.168 14.858V28H251.719V25.3026H251.566C251.284 25.848 250.888 26.3594 250.377 26.8366C249.874 27.3054 249.239 27.6847 248.472 27.9744C247.713 28.2557 246.823 28.3963 245.8 28.3963ZM247.002 24.9957C247.931 24.9957 248.736 24.8125 249.418 24.446C250.1 24.071 250.624 23.5767 250.99 22.9631C251.365 22.3494 251.553 21.6804 251.553 20.956V18.642C251.408 18.7614 251.161 18.8722 250.811 18.9744C250.47 19.0767 250.087 19.1662 249.661 19.2429C249.235 19.3196 248.813 19.3878 248.395 19.4474C247.978 19.5071 247.615 19.5582 247.308 19.6009C246.618 19.6946 246 19.848 245.455 20.0611C244.909 20.2741 244.479 20.5724 244.164 20.956C243.848 21.331 243.691 21.8168 243.691 22.4134C243.691 23.2656 244.002 23.9091 244.624 24.3438C245.246 24.7784 246.039 24.9957 247.002 24.9957ZM268.667 28.3835C266.706 28.3835 265.023 27.9531 263.617 27.0923C262.219 26.2315 261.141 25.0426 260.383 23.5256C259.633 22 259.258 20.2443 259.258 18.2585C259.258 16.2642 259.641 14.5043 260.408 12.9787C261.175 11.4446 262.258 10.2514 263.655 9.39915C265.062 8.53835 266.723 8.10795 268.641 8.10795C270.235 8.10795 271.645 8.40199 272.873 8.99006C274.108 9.5696 275.093 10.392 275.826 11.4574C276.559 12.5142 276.976 13.75 277.079 15.1648H272.655C272.476 14.2187 272.05 13.4304 271.377 12.7997C270.712 12.1605 269.821 11.8409 268.705 11.8409C267.759 11.8409 266.928 12.0966 266.212 12.608C265.496 13.1108 264.938 13.8352 264.537 14.7812C264.145 15.7273 263.949 16.8608 263.949 18.1818C263.949 19.5199 264.145 20.6705 264.537 21.6335C264.929 22.5881 265.479 23.3253 266.187 23.8452C266.902 24.3565 267.742 24.6122 268.705 24.6122C269.387 24.6122 269.996 24.4844 270.533 24.2287C271.079 23.9645 271.535 23.5852 271.901 23.0909C272.267 22.5966 272.519 21.9957 272.655 21.2884H277.079C276.968 22.6776 276.559 23.9091 275.851 24.983C275.144 26.0483 274.181 26.8835 272.962 27.4886C271.743 28.0852 270.312 28.3835 268.667 28.3835ZM284.377 21.8381L284.365 16.2514H285.106L292.163 8.36364H297.571L288.89 18.0284H287.931L284.377 21.8381ZM280.159 28V1.81818H284.786V28H280.159ZM292.482 28L286.09 19.0639L289.21 15.804L298.018 28H292.482Z" fill="#181D27"/>
</svg>
