<svg width="120" height="28" viewBox="0 0 120 28" fill="none" xmlns="http://www.w3.org/2000/svg">
<path d="M5.9446 27H0.882102L10.0994 0.818181H15.9545L25.1847 27H20.1222L13.1293 6.1875H12.9247L5.9446 27ZM6.1108 16.7344H19.9176V20.544H6.1108V16.7344ZM27.7086 27V7.36364H32.1958V10.6364H32.4004C32.7583 9.50284 33.372 8.62926 34.2413 8.01562C35.1191 7.39347 36.1206 7.08239 37.2456 7.08239C37.5012 7.08239 37.7867 7.09517 38.1021 7.12074C38.426 7.13778 38.6944 7.16761 38.9075 7.21023V11.4673C38.7115 11.3991 38.4004 11.3395 37.9742 11.2884C37.5566 11.2287 37.1518 11.1989 36.7598 11.1989C35.916 11.1989 35.1575 11.3821 34.4842 11.7486C33.8194 12.1065 33.2953 12.6051 32.9117 13.2443C32.5282 13.8835 32.3365 14.6207 32.3365 15.456V27H27.7086ZM41.2621 27V7.36364H45.7493V10.6364H45.9538C46.3118 9.50284 46.9254 8.62926 47.7947 8.01562C48.6726 7.39347 49.674 7.08239 50.799 7.08239C51.0547 7.08239 51.3402 7.09517 51.6555 7.12074C51.9794 7.13778 52.2479 7.16761 52.4609 7.21023V11.4673C52.2649 11.3991 51.9538 11.3395 51.5277 11.2884C51.1101 11.2287 50.7052 11.1989 50.3132 11.1989C49.4694 11.1989 48.7109 11.3821 48.0376 11.7486C47.3729 12.1065 46.8487 12.6051 46.4652 13.2443C46.0817 13.8835 45.8899 14.6207 45.8899 15.456V27H41.2621ZM62.5722 27.3835C60.6546 27.3835 58.9927 26.9616 57.5864 26.1179C56.1802 25.2741 55.0893 24.0937 54.3137 22.5767C53.5467 21.0597 53.1632 19.2869 53.1632 17.2585C53.1632 15.2301 53.5467 13.4531 54.3137 11.9276C55.0893 10.402 56.1802 9.21733 57.5864 8.37358C58.9927 7.52983 60.6546 7.10795 62.5722 7.10795C64.4899 7.10795 66.1518 7.52983 67.558 8.37358C68.9643 9.21733 70.0509 10.402 70.818 11.9276C71.5936 13.4531 71.9813 15.2301 71.9813 17.2585C71.9813 19.2869 71.5936 21.0597 70.818 22.5767C70.0509 24.0937 68.9643 25.2741 67.558 26.1179C66.1518 26.9616 64.4899 27.3835 62.5722 27.3835ZM62.5978 23.6761C63.6376 23.6761 64.5069 23.3906 65.2058 22.8196C65.9046 22.2401 66.4245 21.4645 66.7654 20.4929C67.1149 19.5213 67.2896 18.4389 67.2896 17.2457C67.2896 16.044 67.1149 14.9574 66.7654 13.9858C66.4245 13.0057 65.9046 12.2259 65.2058 11.6463C64.5069 11.0668 63.6376 10.777 62.5978 10.777C61.5325 10.777 60.6461 11.0668 59.9387 11.6463C59.2399 12.2259 58.7157 13.0057 58.3663 13.9858C58.0254 14.9574 57.8549 16.044 57.8549 17.2457C57.8549 18.4389 58.0254 19.5213 58.3663 20.4929C58.7157 21.4645 59.2399 22.2401 59.9387 22.8196C60.6461 23.3906 61.5325 23.6761 62.5978 23.6761ZM78.6793 27L73.131 7.36364H77.8483L81.3 21.1705H81.479L85.0074 7.36364H89.6736L93.202 21.0938H93.3938L96.7944 7.36364H101.524L95.9634 27H91.1438L87.462 13.7301H87.1935L83.5117 27H78.6793ZM119.556 12.554L115.337 13.0142C115.217 12.5881 115.009 12.1875 114.71 11.8125C114.421 11.4375 114.029 11.1349 113.534 10.9048C113.04 10.6747 112.435 10.5597 111.719 10.5597C110.756 10.5597 109.946 10.7685 109.29 11.1861C108.642 11.6037 108.323 12.1449 108.331 12.8097C108.323 13.3807 108.531 13.8452 108.958 14.2031C109.392 14.5611 110.108 14.8551 111.105 15.0852L114.455 15.8011C116.313 16.2017 117.693 16.8366 118.597 17.706C119.509 18.5753 119.969 19.7131 119.977 21.1193C119.969 22.3551 119.607 23.446 118.891 24.392C118.183 25.3295 117.199 26.0625 115.938 26.5909C114.676 27.1193 113.227 27.3835 111.591 27.3835C109.188 27.3835 107.253 26.8807 105.787 25.875C104.321 24.8608 103.448 23.4503 103.166 21.6435L107.679 21.2088C107.884 22.0952 108.318 22.7642 108.983 23.2159C109.648 23.6676 110.513 23.8935 111.578 23.8935C112.678 23.8935 113.56 23.6676 114.225 23.2159C114.898 22.7642 115.235 22.206 115.235 21.5412C115.235 20.9787 115.017 20.5142 114.583 20.1477C114.156 19.7812 113.492 19.5 112.588 19.304L109.239 18.6009C107.355 18.2088 105.962 17.5483 105.058 16.6193C104.155 15.6818 103.708 14.4972 103.716 13.0653C103.708 11.8551 104.036 10.8068 104.7 9.92045C105.374 9.02557 106.307 8.33523 107.5 7.84943C108.702 7.35511 110.087 7.10795 111.655 7.10795C113.956 7.10795 115.767 7.59801 117.088 8.57812C118.418 9.55824 119.24 10.8835 119.556 12.554Z" fill="#181D27"/>
</svg>
