<svg width="96" height="28" viewBox="0 0 96 28" fill="none" xmlns="http://www.w3.org/2000/svg">
<path d="M17.0866 0.818181H21.8295V17.9233C21.8295 19.7983 21.3864 21.4474 20.5 22.8707C19.6222 24.294 18.3864 25.4062 16.7926 26.2074C15.1989 27 13.3366 27.3963 11.206 27.3963C9.06676 27.3963 7.20028 27 5.60653 26.2074C4.01278 25.4062 2.77699 24.294 1.89915 22.8707C1.02131 21.4474 0.582386 19.7983 0.582386 17.9233V0.818181H5.32528V17.527C5.32528 18.6179 5.56392 19.5895 6.04119 20.4418C6.52699 21.294 7.20881 21.9631 8.08665 22.4489C8.96449 22.9261 10.0043 23.1648 11.206 23.1648C12.4077 23.1648 13.4474 22.9261 14.3253 22.4489C15.2116 21.9631 15.8935 21.294 16.3707 20.4418C16.848 19.5895 17.0866 18.6179 17.0866 17.527V0.818181ZM41.5801 12.554L37.3613 13.0142C37.242 12.5881 37.0332 12.1875 36.7349 11.8125C36.4451 11.4375 36.0531 11.1349 35.5588 10.9048C35.0644 10.6747 34.4593 10.5597 33.7434 10.5597C32.7804 10.5597 31.9707 10.7685 31.3144 11.1861C30.6667 11.6037 30.3471 12.1449 30.3556 12.8097C30.3471 13.3807 30.5559 13.8452 30.9821 14.2031C31.4167 14.5611 32.1326 14.8551 33.1298 15.0852L36.4792 15.8011C38.3372 16.2017 39.7179 16.8366 40.6213 17.706C41.5332 18.5753 41.9934 19.7131 42.0019 21.1193C41.9934 22.3551 41.6312 23.446 40.9153 24.392C40.2079 25.3295 39.2235 26.0625 37.9622 26.5909C36.7008 27.1193 35.2519 27.3835 33.6156 27.3835C31.2122 27.3835 29.2775 26.8807 27.8116 25.875C26.3457 24.8608 25.4721 23.4503 25.1909 21.6435L29.7037 21.2088C29.9082 22.0952 30.3429 22.7642 31.0076 23.2159C31.6724 23.6676 32.5375 23.8935 33.6028 23.8935C34.7022 23.8935 35.5843 23.6676 36.2491 23.2159C36.9224 22.7642 37.259 22.206 37.259 21.5412C37.259 20.9787 37.0417 20.5142 36.6071 20.1477C36.1809 19.7812 35.5162 19.5 34.6127 19.304L31.2633 18.6009C29.3798 18.2088 27.9863 17.5483 27.0829 16.6193C26.1795 15.6818 25.7321 14.4972 25.7406 13.0653C25.7321 11.8551 26.0602 10.8068 26.725 9.92045C27.3983 9.02557 28.3315 8.33523 29.5247 7.84943C30.7264 7.35511 32.1113 7.10795 33.6795 7.10795C35.9806 7.10795 37.7917 7.59801 39.1127 8.57812C40.4423 9.55824 41.2647 10.8835 41.5801 12.554ZM53.7912 27.3835C51.8224 27.3835 50.1221 26.9744 48.6903 26.1562C47.267 25.3295 46.1719 24.1619 45.4048 22.6534C44.6378 21.1364 44.2542 19.3509 44.2542 17.2969C44.2542 15.277 44.6378 13.5043 45.4048 11.9787C46.1804 10.4446 47.2628 9.25142 48.652 8.39915C50.0412 7.53835 51.6733 7.10795 53.5483 7.10795C54.7585 7.10795 55.9006 7.30398 56.9744 7.69602C58.0568 8.07954 59.0114 8.67614 59.8381 9.4858C60.6733 10.2955 61.3295 11.3267 61.8068 12.5795C62.2841 13.8239 62.5227 15.3068 62.5227 17.0284V18.4474H46.4275V15.3281H58.0866C58.0781 14.4418 57.8864 13.6534 57.5114 12.9631C57.1364 12.2642 56.6122 11.7145 55.9389 11.3139C55.2741 10.9134 54.4986 10.7131 53.6122 10.7131C52.6662 10.7131 51.8352 10.9432 51.1193 11.4034C50.4034 11.8551 49.8452 12.4517 49.4446 13.1932C49.0525 13.9261 48.8523 14.7315 48.8437 15.6094V18.3324C48.8437 19.4744 49.0525 20.4545 49.4702 21.2727C49.8878 22.0824 50.4716 22.7045 51.2216 23.1392C51.9716 23.5653 52.8494 23.7784 53.8551 23.7784C54.5284 23.7784 55.1378 23.6847 55.6832 23.4972C56.2287 23.3011 56.7017 23.0156 57.1023 22.6406C57.5028 22.2656 57.8054 21.8011 58.0099 21.2472L62.331 21.733C62.0582 22.875 61.5383 23.8722 60.7713 24.7244C60.0128 25.5682 59.0412 26.2244 57.8565 26.6932C56.6719 27.1534 55.3167 27.3835 53.7912 27.3835ZM65.7178 27V7.36364H70.2051V10.6364H70.4096C70.7676 9.50284 71.3812 8.62926 72.2505 8.01562C73.1283 7.39347 74.1298 7.08239 75.2548 7.08239C75.5105 7.08239 75.796 7.09517 76.1113 7.12074C76.4352 7.13778 76.7036 7.16761 76.9167 7.21023V11.4673C76.7207 11.3991 76.4096 11.3395 75.9835 11.2884C75.5658 11.2287 75.161 11.1989 74.769 11.1989C73.9252 11.1989 73.1667 11.3821 72.4934 11.7486C71.8286 12.1065 71.3045 12.6051 70.921 13.2443C70.5374 13.8835 70.3457 14.6207 70.3457 15.456V27H65.7178ZM94.7912 12.554L90.5724 13.0142C90.4531 12.5881 90.2443 12.1875 89.946 11.8125C89.6562 11.4375 89.2642 11.1349 88.7699 10.9048C88.2755 10.6747 87.6704 10.5597 86.9545 10.5597C85.9915 10.5597 85.1818 10.7685 84.5255 11.1861C83.8778 11.6037 83.5582 12.1449 83.5667 12.8097C83.5582 13.3807 83.767 13.8452 84.1932 14.2031C84.6278 14.5611 85.3437 14.8551 86.3409 15.0852L89.6903 15.8011C91.5483 16.2017 92.929 16.8366 93.8324 17.706C94.7443 18.5753 95.2045 19.7131 95.213 21.1193C95.2045 22.3551 94.8423 23.446 94.1264 24.392C93.419 25.3295 92.4346 26.0625 91.1733 26.5909C89.9119 27.1193 88.463 27.3835 86.8267 27.3835C84.4233 27.3835 82.4886 26.8807 81.0227 25.875C79.5568 24.8608 78.6832 23.4503 78.402 21.6435L82.9147 21.2088C83.1193 22.0952 83.554 22.7642 84.2187 23.2159C84.8835 23.6676 85.7486 23.8935 86.8139 23.8935C87.9133 23.8935 88.7954 23.6676 89.4602 23.2159C90.1335 22.7642 90.4701 22.206 90.4701 21.5412C90.4701 20.9787 90.2528 20.5142 89.8182 20.1477C89.392 19.7812 88.7272 19.5 87.8238 19.304L84.4744 18.6009C82.5909 18.2088 81.1974 17.5483 80.294 16.6193C79.3906 15.6818 78.9432 14.4972 78.9517 13.0653C78.9432 11.8551 79.2713 10.8068 79.9361 9.92045C80.6093 9.02557 81.5426 8.33523 82.7358 7.84943C83.9375 7.35511 85.3224 7.10795 86.8906 7.10795C89.1917 7.10795 91.0028 7.59801 92.3238 8.57812C93.6534 9.55824 94.4758 10.8835 94.7912 12.554Z" fill="#181D27"/>
</svg>
