<svg width="374" height="29" viewBox="0 0 374 29" fill="none" xmlns="http://www.w3.org/2000/svg">
<path d="M0.582386 28V1.81818H17.3551V5.79403H5.32528V12.902H16.2045V16.8778H5.32528V28H0.582386ZM20.7516 28V8.36364H25.3794V28H20.7516ZM23.0783 5.5767C22.3453 5.5767 21.7147 5.33381 21.1863 4.84801C20.6578 4.35369 20.3936 3.76136 20.3936 3.07102C20.3936 2.37216 20.6578 1.77983 21.1863 1.29403C21.7147 0.799715 22.3453 0.552556 23.0783 0.552556C23.8198 0.552556 24.4505 0.799715 24.9703 1.29403C25.4988 1.77983 25.763 2.37216 25.763 3.07102C25.763 3.76136 25.4988 4.35369 24.9703 4.84801C24.4505 5.33381 23.8198 5.5767 23.0783 5.5767ZM34.0462 16.4943V28H29.4183V8.36364H33.8416V11.7003H34.0717C34.5234 10.6009 35.2436 9.72727 36.2322 9.07955C37.2294 8.43182 38.4609 8.10795 39.9268 8.10795C41.2819 8.10795 42.4623 8.39773 43.468 8.97727C44.4822 9.55682 45.2663 10.3963 45.8203 11.4957C46.3828 12.5952 46.6598 13.929 46.6513 15.4972V28H42.0234V16.2131C42.0234 14.9006 41.6825 13.8736 41.0007 13.1321C40.3274 12.3906 39.3942 12.0199 38.201 12.0199C37.3913 12.0199 36.6711 12.1989 36.0405 12.5568C35.4183 12.9062 34.9283 13.4134 34.5703 14.0781C34.2209 14.7429 34.0462 15.5483 34.0462 16.4943ZM56.2864 28.3963C55.0421 28.3963 53.9213 28.1747 52.9242 27.7315C51.9355 27.2798 51.1514 26.6151 50.5719 25.7372C50.0009 24.8594 49.7154 23.777 49.7154 22.4901C49.7154 21.3821 49.9199 20.4659 50.329 19.7415C50.7381 19.017 51.2963 18.4375 52.0037 18.0028C52.7111 17.5682 53.508 17.2401 54.3943 17.0185C55.2892 16.7884 56.2139 16.6222 57.1685 16.5199C58.319 16.4006 59.2523 16.294 59.9682 16.2003C60.6841 16.098 61.204 15.9446 61.5279 15.7401C61.8602 15.527 62.0264 15.1989 62.0264 14.7557V14.679C62.0264 13.7159 61.7409 12.9702 61.1699 12.4418C60.5989 11.9134 59.7764 11.6491 58.7026 11.6491C57.569 11.6491 56.6699 11.8963 56.0051 12.3906C55.3489 12.8849 54.9057 13.4687 54.6756 14.142L50.3546 13.5284C50.6955 12.3352 51.258 11.3381 52.0421 10.5369C52.8262 9.72727 53.785 9.12216 54.9185 8.72159C56.052 8.3125 57.3048 8.10795 58.677 8.10795C59.623 8.10795 60.5648 8.21875 61.5023 8.44034C62.4398 8.66193 63.2963 9.02841 64.0719 9.53977C64.8475 10.0426 65.4696 10.7287 65.9384 11.598C66.4156 12.4673 66.6543 13.554 66.6543 14.858V28H62.2054V25.3026H62.052C61.7708 25.848 61.3744 26.3594 60.8631 26.8366C60.3602 27.3054 59.7253 27.6847 58.9583 27.9744C58.1997 28.2557 57.3091 28.3963 56.2864 28.3963ZM57.4881 24.9957C58.4171 24.9957 59.2225 24.8125 59.9043 24.446C60.5861 24.071 61.1102 23.5767 61.4767 22.9631C61.8517 22.3494 62.0392 21.6804 62.0392 20.956V18.642C61.8943 18.7614 61.6472 18.8722 61.2977 18.9744C60.9568 19.0767 60.5733 19.1662 60.1472 19.2429C59.721 19.3196 59.2992 19.3878 58.8815 19.4474C58.4639 19.5071 58.1017 19.5582 57.7949 19.6009C57.1046 19.6946 56.4867 19.848 55.9412 20.0611C55.3958 20.2741 54.9654 20.5724 54.65 20.956C54.3347 21.331 54.177 21.8168 54.177 22.4134C54.177 23.2656 54.4881 23.9091 55.1102 24.3438C55.7324 24.7784 56.525 24.9957 57.4881 24.9957ZM75.2155 16.4943V28H70.5877V8.36364H75.011V11.7003H75.2411C75.6928 10.6009 76.413 9.72727 77.4016 9.07955C78.3988 8.43182 79.6303 8.10795 81.0962 8.10795C82.4513 8.10795 83.6317 8.39773 84.6374 8.97727C85.6516 9.55682 86.4357 10.3963 86.9897 11.4957C87.5522 12.5952 87.8292 13.929 87.8206 15.4972V28H83.1928V16.2131C83.1928 14.9006 82.8519 13.8736 82.1701 13.1321C81.4968 12.3906 80.5635 12.0199 79.3704 12.0199C78.5607 12.0199 77.8405 12.1989 77.2098 12.5568C76.5877 12.9062 76.0976 13.4134 75.7397 14.0781C75.3902 14.7429 75.2155 15.5483 75.2155 16.4943ZM100.371 28.3835C98.4103 28.3835 96.7271 27.9531 95.3208 27.0923C93.9231 26.2315 92.845 25.0426 92.0864 23.5256C91.3364 22 90.9614 20.2443 90.9614 18.2585C90.9614 16.2642 91.345 14.5043 92.112 12.9787C92.879 11.4446 93.9614 10.2514 95.3592 9.39915C96.7654 8.53835 98.4273 8.10795 100.345 8.10795C101.939 8.10795 103.349 8.40199 104.576 8.99006C105.812 9.5696 106.797 10.392 107.53 11.4574C108.263 12.5142 108.68 13.75 108.782 15.1648H104.359C104.18 14.2187 103.754 13.4304 103.081 12.7997C102.416 12.1605 101.525 11.8409 100.409 11.8409C99.4629 11.8409 98.6319 12.0966 97.916 12.608C97.2001 13.1108 96.6418 13.8352 96.2413 14.7812C95.8492 15.7273 95.6532 16.8608 95.6532 18.1818C95.6532 19.5199 95.8492 20.6705 96.2413 21.6335C96.6333 22.5881 97.183 23.3253 97.8904 23.8452C98.6063 24.3565 99.4458 24.6122 100.409 24.6122C101.091 24.6122 101.7 24.4844 102.237 24.2287C102.782 23.9645 103.238 23.5852 103.605 23.0909C103.971 22.5966 104.223 21.9957 104.359 21.2884H108.782C108.672 22.6776 108.263 23.9091 107.555 24.983C106.848 26.0483 105.885 26.8835 104.666 27.4886C103.447 28.0852 102.015 28.3835 100.371 28.3835ZM120.556 28.3835C118.587 28.3835 116.887 27.9744 115.455 27.1562C114.032 26.3295 112.936 25.1619 112.169 23.6534C111.402 22.1364 111.019 20.3509 111.019 18.2969C111.019 16.277 111.402 14.5043 112.169 12.9787C112.945 11.4446 114.027 10.2514 115.417 9.39915C116.806 8.53835 118.438 8.10795 120.313 8.10795C121.523 8.10795 122.665 8.30398 123.739 8.69602C124.821 9.07954 125.776 9.67614 126.603 10.4858C127.438 11.2955 128.094 12.3267 128.571 13.5795C129.049 14.8239 129.287 16.3068 129.287 18.0284V19.4474H113.192V16.3281H124.851C124.843 15.4418 124.651 14.6534 124.276 13.9631C123.901 13.2642 123.377 12.7145 122.703 12.3139C122.039 11.9134 121.263 11.7131 120.377 11.7131C119.431 11.7131 118.6 11.9432 117.884 12.4034C117.168 12.8551 116.61 13.4517 116.209 14.1932C115.817 14.9261 115.617 15.7315 115.608 16.6094V19.3324C115.608 20.4744 115.817 21.4545 116.235 22.2727C116.652 23.0824 117.236 23.7045 117.986 24.1392C118.736 24.5653 119.614 24.7784 120.62 24.7784C121.293 24.7784 121.902 24.6847 122.448 24.4972C122.993 24.3011 123.466 24.0156 123.867 23.6406C124.267 23.2656 124.57 22.8011 124.774 22.2472L129.095 22.733C128.823 23.875 128.303 24.8722 127.536 25.7244C126.777 26.5682 125.806 27.2244 124.621 27.6932C123.436 28.1534 122.081 28.3835 120.556 28.3835ZM148.516 28.3835C146.726 28.3835 145.188 28.0597 143.901 27.4119C142.614 26.7642 141.621 25.8906 140.922 24.7912C140.232 23.6832 139.887 22.4347 139.887 21.0455C139.887 19.9972 140.1 19.0682 140.526 18.2585C140.961 17.4489 141.557 16.6989 142.316 16.0085C143.083 15.3182 143.969 14.6321 144.975 13.9503L149.615 10.7926C150.297 10.3494 150.813 9.88068 151.162 9.38636C151.52 8.89204 151.699 8.3125 151.699 7.64773C151.699 7.08523 151.461 6.55256 150.983 6.04972C150.515 5.54688 149.867 5.29545 149.04 5.29545C148.486 5.29545 147.996 5.42756 147.57 5.69176C147.152 5.94744 146.824 6.28409 146.586 6.7017C146.355 7.11932 146.24 7.5625 146.24 8.03125C146.24 8.60227 146.398 9.18182 146.713 9.76989C147.037 10.358 147.455 10.9673 147.966 11.598C148.486 12.2287 149.04 12.8977 149.628 13.6051L161.914 28H156.902L146.701 16.3153C145.942 15.429 145.209 14.5554 144.502 13.6946C143.803 12.8338 143.228 11.9389 142.776 11.0099C142.333 10.0724 142.111 9.05824 142.111 7.96733C142.111 6.73153 142.397 5.62784 142.968 4.65625C143.539 3.67614 144.336 2.90483 145.358 2.34233C146.39 1.77983 147.595 1.49858 148.976 1.49858C150.357 1.49858 151.541 1.77131 152.53 2.31676C153.519 2.86221 154.282 3.58665 154.818 4.49006C155.355 5.39347 155.624 6.37784 155.624 7.44318C155.624 8.67898 155.317 9.78693 154.703 10.767C154.09 11.7386 153.238 12.6207 152.147 13.4134L146.854 17.2869C145.985 17.9176 145.363 18.5568 144.988 19.2045C144.613 19.8437 144.425 20.3892 144.425 20.8409C144.425 21.5312 144.6 22.1577 144.949 22.7202C145.299 23.2827 145.789 23.7344 146.419 24.0753C147.059 24.4077 147.804 24.5739 148.657 24.5739C149.594 24.5739 150.519 24.3651 151.431 23.9474C152.343 23.5213 153.174 22.9162 153.924 22.1321C154.674 21.348 155.27 20.4105 155.713 19.3196C156.157 18.2202 156.378 17.0014 156.378 15.6634H160.354C160.354 17.3168 160.171 18.7571 159.804 19.9844C159.438 21.2031 158.965 22.2344 158.385 23.0781C157.806 23.9134 157.192 24.5824 156.544 25.0852C156.34 25.2301 156.144 25.375 155.956 25.5199C155.769 25.6648 155.573 25.8097 155.368 25.9545C154.448 26.7898 153.37 27.4034 152.134 27.7955C150.907 28.1875 149.701 28.3835 148.516 28.3835ZM180.746 28.3835C178.777 28.3835 177.077 27.9744 175.645 27.1562C174.222 26.3295 173.127 25.1619 172.36 23.6534C171.593 22.1364 171.209 20.3509 171.209 18.2969C171.209 16.277 171.593 14.5043 172.36 12.9787C173.135 11.4446 174.218 10.2514 175.607 9.39915C176.996 8.53835 178.628 8.10795 180.503 8.10795C181.713 8.10795 182.855 8.30398 183.929 8.69602C185.012 9.07954 185.966 9.67614 186.793 10.4858C187.628 11.2955 188.284 12.3267 188.762 13.5795C189.239 14.8239 189.478 16.3068 189.478 18.0284V19.4474H173.382V16.3281H185.041C185.033 15.4418 184.841 14.6534 184.466 13.9631C184.091 13.2642 183.567 12.7145 182.894 12.3139C182.229 11.9134 181.453 11.7131 180.567 11.7131C179.621 11.7131 178.79 11.9432 178.074 12.4034C177.358 12.8551 176.8 13.4517 176.399 14.1932C176.007 14.9261 175.807 15.7315 175.799 16.6094V19.3324C175.799 20.4744 176.007 21.4545 176.425 22.2727C176.843 23.0824 177.426 23.7045 178.176 24.1392C178.926 24.5653 179.804 24.7784 180.81 24.7784C181.483 24.7784 182.093 24.6847 182.638 24.4972C183.184 24.3011 183.657 24.0156 184.057 23.6406C184.458 23.2656 184.76 22.8011 184.965 22.2472L189.286 22.733C189.013 23.875 188.493 24.8722 187.726 25.7244C186.968 26.5682 185.996 27.2244 184.811 27.6932C183.627 28.1534 182.272 28.3835 180.746 28.3835ZM215.288 10.652H210.506C210.37 9.8679 210.119 9.17329 209.752 8.56818C209.386 7.95454 208.93 7.43466 208.384 7.00852C207.839 6.58239 207.217 6.26278 206.518 6.04972C205.828 5.82813 205.082 5.71733 204.281 5.71733C202.857 5.71733 201.596 6.07528 200.497 6.79119C199.397 7.49858 198.536 8.53835 197.914 9.91051C197.292 11.2741 196.981 12.9403 196.981 14.9091C196.981 16.9119 197.292 18.5994 197.914 19.9716C198.545 21.3352 199.406 22.3665 200.497 23.0653C201.596 23.7557 202.853 24.1009 204.268 24.1009C205.052 24.1009 205.785 23.9986 206.467 23.794C207.157 23.581 207.775 23.2699 208.32 22.8608C208.874 22.4517 209.339 21.9489 209.714 21.3523C210.097 20.7557 210.362 20.0739 210.506 19.3068L215.288 19.3324C215.109 20.5767 214.721 21.7443 214.124 22.8352C213.536 23.9261 212.765 24.8892 211.81 25.7244C210.856 26.5511 209.739 27.1989 208.461 27.6676C207.183 28.1278 205.764 28.358 204.204 28.358C201.903 28.358 199.849 27.8253 198.042 26.7599C196.235 25.6946 194.812 24.1562 193.772 22.1449C192.732 20.1335 192.212 17.7216 192.212 14.9091C192.212 12.0881 192.737 9.67614 193.785 7.6733C194.833 5.66193 196.261 4.12358 198.068 3.05824C199.874 1.9929 201.92 1.46023 204.204 1.46023C205.661 1.46023 207.016 1.66477 208.269 2.07386C209.522 2.48295 210.639 3.08381 211.619 3.87642C212.599 4.66051 213.404 5.62358 214.035 6.76562C214.674 7.89915 215.092 9.1946 215.288 10.652ZM227.272 28.3835C225.354 28.3835 223.692 27.9616 222.286 27.1179C220.88 26.2741 219.789 25.0937 219.013 23.5767C218.246 22.0597 217.863 20.2869 217.863 18.2585C217.863 16.2301 218.246 14.4531 219.013 12.9276C219.789 11.402 220.88 10.2173 222.286 9.37358C223.692 8.52983 225.354 8.10795 227.272 8.10795C229.19 8.10795 230.851 8.52983 232.258 9.37358C233.664 10.2173 234.751 11.402 235.518 12.9276C236.293 14.4531 236.681 16.2301 236.681 18.2585C236.681 20.2869 236.293 22.0597 235.518 23.5767C234.751 25.0937 233.664 26.2741 232.258 27.1179C230.851 27.9616 229.19 28.3835 227.272 28.3835ZM227.298 24.6761C228.337 24.6761 229.207 24.3906 229.905 23.8196C230.604 23.2401 231.124 22.4645 231.465 21.4929C231.815 20.5213 231.989 19.4389 231.989 18.2457C231.989 17.044 231.815 15.9574 231.465 14.9858C231.124 14.0057 230.604 13.2259 229.905 12.6463C229.207 12.0668 228.337 11.777 227.298 11.777C226.232 11.777 225.346 12.0668 224.638 12.6463C223.94 13.2259 223.415 14.0057 223.066 14.9858C222.725 15.9574 222.555 17.044 222.555 18.2457C222.555 19.4389 222.725 20.5213 223.066 21.4929C223.415 22.4645 223.94 23.2401 224.638 23.8196C225.346 24.3906 226.232 24.6761 227.298 24.6761ZM239.889 28V8.36364H244.312V11.7003H244.542C244.951 10.5753 245.629 9.69744 246.575 9.06676C247.521 8.42756 248.65 8.10795 249.963 8.10795C251.292 8.10795 252.413 8.43182 253.325 9.07955C254.245 9.71875 254.893 10.5923 255.268 11.7003H255.473C255.907 10.6094 256.64 9.74006 257.672 9.09233C258.711 8.43608 259.943 8.10795 261.366 8.10795C263.173 8.10795 264.647 8.67898 265.79 9.82102C266.932 10.9631 267.503 12.6293 267.503 14.8196V28H262.862V15.5355C262.862 14.3168 262.538 13.4261 261.89 12.8636C261.243 12.2926 260.45 12.0071 259.513 12.0071C258.396 12.0071 257.522 12.3565 256.892 13.0554C256.27 13.7457 255.959 14.6449 255.959 15.7528V28H251.42V15.3438C251.42 14.3295 251.113 13.5199 250.5 12.9148C249.895 12.3097 249.102 12.0071 248.122 12.0071C247.457 12.0071 246.852 12.1776 246.307 12.5185C245.761 12.8509 245.326 13.3239 245.003 13.9375C244.679 14.5426 244.517 15.25 244.517 16.0597V28H239.889ZM271.478 28V8.36364H275.901V11.7003H276.131C276.54 10.5753 277.218 9.69744 278.164 9.06676C279.11 8.42756 280.239 8.10795 281.551 8.10795C282.881 8.10795 284.002 8.43182 284.914 9.07955C285.834 9.71875 286.482 10.5923 286.857 11.7003H287.061C287.496 10.6094 288.229 9.74006 289.26 9.09233C290.3 8.43608 291.532 8.10795 292.955 8.10795C294.762 8.10795 296.236 8.67898 297.378 9.82102C298.52 10.9631 299.091 12.6293 299.091 14.8196V28H294.451V15.5355C294.451 14.3168 294.127 13.4261 293.479 12.8636C292.831 12.2926 292.039 12.0071 291.101 12.0071C289.985 12.0071 289.111 12.3565 288.48 13.0554C287.858 13.7457 287.547 14.6449 287.547 15.7528V28H283.009V15.3438C283.009 14.3295 282.702 13.5199 282.088 12.9148C281.483 12.3097 280.691 12.0071 279.71 12.0071C279.046 12.0071 278.441 12.1776 277.895 12.5185C277.35 12.8509 276.915 13.3239 276.591 13.9375C276.267 14.5426 276.105 15.25 276.105 16.0597V28H271.478ZM311.759 28.3835C309.791 28.3835 308.09 27.9744 306.658 27.1562C305.235 26.3295 304.14 25.1619 303.373 23.6534C302.606 22.1364 302.222 20.3509 302.222 18.2969C302.222 16.277 302.606 14.5043 303.373 12.9787C304.149 11.4446 305.231 10.2514 306.62 9.39915C308.009 8.53835 309.641 8.10795 311.516 8.10795C312.727 8.10795 313.869 8.30398 314.943 8.69602C316.025 9.07954 316.979 9.67614 317.806 10.4858C318.641 11.2955 319.298 12.3267 319.775 13.5795C320.252 14.8239 320.491 16.3068 320.491 18.0284V19.4474H304.396V16.3281H316.055C316.046 15.4418 315.854 14.6534 315.479 13.9631C315.104 13.2642 314.58 12.7145 313.907 12.3139C313.242 11.9134 312.467 11.7131 311.58 11.7131C310.634 11.7131 309.803 11.9432 309.087 12.4034C308.372 12.8551 307.813 13.4517 307.413 14.1932C307.021 14.9261 306.82 15.7315 306.812 16.6094V19.3324C306.812 20.4744 307.021 21.4545 307.438 22.2727C307.856 23.0824 308.44 23.7045 309.19 24.1392C309.94 24.5653 310.818 24.7784 311.823 24.7784C312.497 24.7784 313.106 24.6847 313.651 24.4972C314.197 24.3011 314.67 24.0156 315.07 23.6406C315.471 23.2656 315.774 22.8011 315.978 22.2472L320.299 22.733C320.026 23.875 319.506 24.8722 318.739 25.7244C317.981 26.5682 317.009 27.2244 315.825 27.6932C314.64 28.1534 313.285 28.3835 311.759 28.3835ZM323.686 28V8.36364H328.173V11.6364H328.378C328.736 10.5028 329.349 9.62926 330.219 9.01562C331.096 8.39347 332.098 8.08239 333.223 8.08239C333.479 8.08239 333.764 8.09517 334.079 8.12074C334.403 8.13778 334.672 8.16761 334.885 8.21023V12.4673C334.689 12.3991 334.378 12.3395 333.952 12.2884C333.534 12.2287 333.129 12.1989 332.737 12.1989C331.893 12.1989 331.135 12.3821 330.462 12.7486C329.797 13.1065 329.273 13.6051 328.889 14.2443C328.506 14.8835 328.314 15.6207 328.314 16.456V28H323.686ZM344.996 28.3835C343.036 28.3835 341.353 27.9531 339.946 27.0923C338.549 26.2315 337.471 25.0426 336.712 23.5256C335.962 22 335.587 20.2443 335.587 18.2585C335.587 16.2642 335.971 14.5043 336.738 12.9787C337.505 11.4446 338.587 10.2514 339.985 9.39915C341.391 8.53835 343.053 8.10795 344.971 8.10795C346.564 8.10795 347.975 8.40199 349.202 8.99006C350.438 9.5696 351.422 10.392 352.155 11.4574C352.888 12.5142 353.306 13.75 353.408 15.1648H348.985C348.806 14.2187 348.38 13.4304 347.706 12.7997C347.042 12.1605 346.151 11.8409 345.035 11.8409C344.088 11.8409 343.258 12.0966 342.542 12.608C341.826 13.1108 341.267 13.8352 340.867 14.7812C340.475 15.7273 340.279 16.8608 340.279 18.1818C340.279 19.5199 340.475 20.6705 340.867 21.6335C341.259 22.5881 341.809 23.3253 342.516 23.8452C343.232 24.3565 344.071 24.6122 345.035 24.6122C345.716 24.6122 346.326 24.4844 346.863 24.2287C347.408 23.9645 347.864 23.5852 348.231 23.0909C348.597 22.5966 348.848 21.9957 348.985 21.2884H353.408C353.297 22.6776 352.888 23.9091 352.181 24.983C351.473 26.0483 350.51 26.8835 349.292 27.4886C348.073 28.0852 346.641 28.3835 344.996 28.3835ZM365.181 28.3835C363.213 28.3835 361.512 27.9744 360.08 27.1562C358.657 26.3295 357.562 25.1619 356.795 23.6534C356.028 22.1364 355.644 20.3509 355.644 18.2969C355.644 16.277 356.028 14.5043 356.795 12.9787C357.571 11.4446 358.653 10.2514 360.042 9.39915C361.431 8.53835 363.063 8.10795 364.938 8.10795C366.149 8.10795 367.291 8.30398 368.365 8.69602C369.447 9.07954 370.402 9.67614 371.228 10.4858C372.063 11.2955 372.72 12.3267 373.197 13.5795C373.674 14.8239 373.913 16.3068 373.913 18.0284V19.4474H357.818V16.3281H369.477C369.468 15.4418 369.277 14.6534 368.902 13.9631C368.527 13.2642 368.002 12.7145 367.329 12.3139C366.664 11.9134 365.889 11.7131 365.002 11.7131C364.056 11.7131 363.225 11.9432 362.509 12.4034C361.794 12.8551 361.235 13.4517 360.835 14.1932C360.443 14.9261 360.242 15.7315 360.234 16.6094V19.3324C360.234 20.4744 360.443 21.4545 360.86 22.2727C361.278 23.0824 361.862 23.7045 362.612 24.1392C363.362 24.5653 364.24 24.7784 365.245 24.7784C365.919 24.7784 366.528 24.6847 367.073 24.4972C367.619 24.3011 368.092 24.0156 368.492 23.6406C368.893 23.2656 369.196 22.8011 369.4 22.2472L373.721 22.733C373.448 23.875 372.929 24.8722 372.161 25.7244C371.403 26.5682 370.431 27.2244 369.247 27.6932C368.062 28.1534 366.707 28.3835 365.181 28.3835Z" fill="#181D27"/>
</svg>
