<svg width="112" height="35" viewBox="0 0 112 35" fill="none" xmlns="http://www.w3.org/2000/svg">
<path d="M0.582386 27V0.818181H5.32528V23.0241H16.8565V27H0.582386ZM25.699 27.3963C24.4547 27.3963 23.334 27.1747 22.3368 26.7315C21.3482 26.2798 20.5641 25.6151 19.9845 24.7372C19.4135 23.8594 19.128 22.777 19.128 21.4901C19.128 20.3821 19.3326 19.4659 19.7416 18.7415C20.1507 18.017 20.709 17.4375 21.4164 17.0028C22.1238 16.5682 22.9206 16.2401 23.807 16.0185C24.7019 15.7884 25.6266 15.6222 26.5811 15.5199C27.7317 15.4006 28.6649 15.294 29.3809 15.2003C30.0968 15.098 30.6166 14.9446 30.9405 14.7401C31.2729 14.527 31.4391 14.1989 31.4391 13.7557V13.679C31.4391 12.7159 31.1536 11.9702 30.5826 11.4418C30.0115 10.9134 29.1891 10.6491 28.1152 10.6491C26.9817 10.6491 26.0826 10.8963 25.4178 11.3906C24.7615 11.8849 24.3184 12.4687 24.0882 13.142L19.7672 12.5284C20.1081 11.3352 20.6706 10.3381 21.4547 9.53693C22.2388 8.72727 23.1976 8.12216 24.3311 7.72159C25.4647 7.3125 26.7175 7.10795 28.0897 7.10795C29.0357 7.10795 29.9774 7.21875 30.9149 7.44034C31.8524 7.66193 32.709 8.02841 33.4845 8.53977C34.2601 9.04261 34.8823 9.72869 35.351 10.598C35.8283 11.4673 36.0669 12.554 36.0669 13.858V27H31.6181V24.3026H31.4647C31.1834 24.848 30.7871 25.3594 30.2757 25.8366C29.7729 26.3054 29.138 26.6847 28.3709 26.9744C27.6124 27.2557 26.7218 27.3963 25.699 27.3963ZM26.9007 23.9957C27.8297 23.9957 28.6351 23.8125 29.3169 23.446C29.9988 23.071 30.5229 22.5767 30.8894 21.9631C31.2644 21.3494 31.4519 20.6804 31.4519 19.956V17.642C31.307 17.7614 31.0598 17.8722 30.7104 17.9744C30.3695 18.0767 29.986 18.1662 29.5598 18.2429C29.1337 18.3196 28.7118 18.3878 28.2942 18.4474C27.8766 18.5071 27.5144 18.5582 27.2076 18.6009C26.5172 18.6946 25.8993 18.848 25.3539 19.0611C24.8084 19.2741 24.378 19.5724 24.0627 19.956C23.7473 20.331 23.5897 20.8168 23.5897 21.4134C23.5897 22.2656 23.9007 22.9091 24.5229 23.3438C25.1451 23.7784 25.9377 23.9957 26.9007 23.9957ZM42.1736 34.3636C41.543 34.3636 40.9591 34.3125 40.4222 34.2102C39.8938 34.1165 39.4719 34.0057 39.1566 33.8778L40.2305 30.2727C40.9038 30.4688 41.5046 30.5625 42.033 30.554C42.5614 30.5455 43.0259 30.3793 43.4265 30.0554C43.8356 29.7401 44.1807 29.2116 44.462 28.4702L44.8583 27.4091L37.7376 7.36364H42.6466L47.1722 22.1932H47.3768L51.9151 7.36364H56.837L48.9748 29.3778C48.6083 30.4176 48.1225 31.3082 47.5174 32.0497C46.9123 32.7997 46.1708 33.3707 45.293 33.7628C44.4236 34.1634 43.3839 34.3636 42.1736 34.3636ZM67.2168 27.3835C65.2992 27.3835 63.6372 26.9616 62.231 26.1179C60.8247 25.2741 59.7338 24.0937 58.9583 22.5767C58.1912 21.0597 57.8077 19.2869 57.8077 17.2585C57.8077 15.2301 58.1912 13.4531 58.9583 11.9276C59.7338 10.402 60.8247 9.21733 62.231 8.37358C63.6372 7.52983 65.2992 7.10795 67.2168 7.10795C69.1344 7.10795 70.7963 7.52983 72.2026 8.37358C73.6088 9.21733 74.6955 10.402 75.4625 11.9276C76.2381 13.4531 76.6259 15.2301 76.6259 17.2585C76.6259 19.2869 76.2381 21.0597 75.4625 22.5767C74.6955 24.0937 73.6088 25.2741 72.2026 26.1179C70.7963 26.9616 69.1344 27.3835 67.2168 27.3835ZM67.2423 23.6761C68.2821 23.6761 69.1514 23.3906 69.8503 22.8196C70.5492 22.2401 71.069 21.4645 71.41 20.4929C71.7594 19.5213 71.9341 18.4389 71.9341 17.2457C71.9341 16.044 71.7594 14.9574 71.41 13.9858C71.069 13.0057 70.5492 12.2259 69.8503 11.6463C69.1514 11.0668 68.2821 10.777 67.2423 10.777C66.177 10.777 65.2906 11.0668 64.5833 11.6463C63.8844 12.2259 63.3602 13.0057 63.0108 13.9858C62.6699 14.9574 62.4994 16.044 62.4994 17.2457C62.4994 18.4389 62.6699 19.5213 63.0108 20.4929C63.3602 21.4645 63.8844 22.2401 64.5833 22.8196C65.2906 23.3906 66.177 23.6761 67.2423 23.6761ZM92.3494 18.7415V7.36364H96.9772V27H92.49V23.5099H92.2855C91.8423 24.6094 91.1136 25.5085 90.0994 26.2074C89.0937 26.9062 87.8537 27.2557 86.3792 27.2557C85.0923 27.2557 83.9545 26.9702 82.9659 26.3991C81.9858 25.8196 81.2187 24.9801 80.6647 23.8807C80.1108 22.7727 79.8338 21.4347 79.8338 19.8665V7.36364H84.4616V19.1506C84.4616 20.3949 84.8025 21.3835 85.4843 22.1165C86.1662 22.8494 87.0611 23.2159 88.169 23.2159C88.8508 23.2159 89.5113 23.0497 90.1505 22.7173C90.7897 22.3849 91.3139 21.8906 91.723 21.2344C92.1406 20.5696 92.3494 19.7386 92.3494 18.7415ZM110.822 7.36364V10.9432H99.5332V7.36364H110.822ZM102.32 2.65909H106.948V21.0938C106.948 21.7159 107.042 22.1932 107.229 22.5256C107.425 22.8494 107.681 23.071 107.996 23.1903C108.312 23.3097 108.661 23.3693 109.045 23.3693C109.334 23.3693 109.599 23.348 109.837 23.3054C110.084 23.2628 110.272 23.2244 110.4 23.1903L111.179 26.8082C110.932 26.8935 110.579 26.9872 110.118 27.0895C109.667 27.1918 109.113 27.2514 108.456 27.2685C107.297 27.3026 106.253 27.1278 105.324 26.7443C104.395 26.3523 103.658 25.7472 103.113 24.929C102.576 24.1108 102.312 23.0881 102.32 21.8608V2.65909Z" fill="#181D27"/>
</svg>
