<svg width="75" height="29" viewBox="0 0 75 29" fill="none" xmlns="http://www.w3.org/2000/svg">
<path d="M0.582386 28V1.81818H17.3551V5.79403H5.32528V12.902H16.2045V16.8778H5.32528V28H0.582386ZM20.7516 28V8.36364H25.3794V28H20.7516ZM23.0783 5.5767C22.3453 5.5767 21.7147 5.33381 21.1863 4.84801C20.6578 4.35369 20.3936 3.76136 20.3936 3.07102C20.3936 2.37216 20.6578 1.77983 21.1863 1.29403C21.7147 0.799715 22.3453 0.552556 23.0783 0.552556C23.8198 0.552556 24.4505 0.799715 24.9703 1.29403C25.4988 1.77983 25.763 2.37216 25.763 3.07102C25.763 3.76136 25.4988 4.35369 24.9703 4.84801C24.4505 5.33381 23.8198 5.5767 23.0783 5.5767ZM34.0462 1.81818V28H29.4183V1.81818H34.0462ZM46.7782 28.3835C44.8095 28.3835 43.1092 27.9744 41.6774 27.1562C40.2541 26.3295 39.1589 25.1619 38.3918 23.6534C37.6248 22.1364 37.2413 20.3509 37.2413 18.2969C37.2413 16.277 37.6248 14.5043 38.3918 12.9787C39.1674 11.4446 40.2498 10.2514 41.639 9.39915C43.0282 8.53835 44.6603 8.10795 46.5353 8.10795C47.7455 8.10795 48.8876 8.30398 49.9614 8.69602C51.0438 9.07954 51.9984 9.67614 52.8251 10.4858C53.6603 11.2955 54.3166 12.3267 54.7938 13.5795C55.2711 14.8239 55.5097 16.3068 55.5097 18.0284V19.4474H39.4146V16.3281H51.0737C51.0651 15.4418 50.8734 14.6534 50.4984 13.9631C50.1234 13.2642 49.5992 12.7145 48.9259 12.3139C48.2612 11.9134 47.4856 11.7131 46.5992 11.7131C45.6532 11.7131 44.8222 11.9432 44.1063 12.4034C43.3904 12.8551 42.8322 13.4517 42.4316 14.1932C42.0396 14.9261 41.8393 15.7315 41.8308 16.6094V19.3324C41.8308 20.4744 42.0396 21.4545 42.4572 22.2727C42.8748 23.0824 43.4586 23.7045 44.2086 24.1392C44.9586 24.5653 45.8364 24.7784 46.8421 24.7784C47.5154 24.7784 48.1248 24.6847 48.6703 24.4972C49.2157 24.3011 49.6887 24.0156 50.0893 23.6406C50.4899 23.2656 50.7924 22.8011 50.997 22.2472L55.318 22.733C55.0453 23.875 54.5254 24.8722 53.7583 25.7244C52.9998 26.5682 52.0282 27.2244 50.8436 27.6932C49.6589 28.1534 48.3038 28.3835 46.7782 28.3835ZM74.2248 13.554L70.006 14.0142C69.8867 13.5881 69.6779 13.1875 69.3796 12.8125C69.0898 12.4375 68.6978 12.1349 68.2035 11.9048C67.7091 11.6747 67.104 11.5597 66.3881 11.5597C65.425 11.5597 64.6154 11.7685 63.9591 12.1861C63.3114 12.6037 62.9918 13.1449 63.0003 13.8097C62.9918 14.3807 63.2006 14.8452 63.6267 15.2031C64.0614 15.5611 64.7773 15.8551 65.7745 16.0852L69.1239 16.8011C70.9819 17.2017 72.3625 17.8366 73.266 18.706C74.1779 19.5753 74.6381 20.7131 74.6466 22.1193C74.6381 23.3551 74.2759 24.446 73.56 25.392C72.8526 26.3295 71.8682 27.0625 70.6069 27.5909C69.3455 28.1193 67.8966 28.3835 66.2603 28.3835C63.8569 28.3835 61.9222 27.8807 60.4563 26.875C58.9904 25.8608 58.1168 24.4503 57.8356 22.6435L62.3483 22.2088C62.5529 23.0952 62.9875 23.7642 63.6523 24.2159C64.3171 24.6676 65.1821 24.8935 66.2475 24.8935C67.3469 24.8935 68.229 24.6676 68.8938 24.2159C69.5671 23.7642 69.9037 23.206 69.9037 22.5412C69.9037 21.9787 69.6864 21.5142 69.2517 21.1477C68.8256 20.7812 68.1608 20.5 67.2574 20.304L63.908 19.6009C62.0245 19.2088 60.631 18.5483 59.7276 17.6193C58.8242 16.6818 58.3767 15.4972 58.3853 14.0653C58.3767 12.8551 58.7049 11.8068 59.3696 10.9205C60.0429 10.0256 60.9762 9.33523 62.1694 8.84943C63.3711 8.35511 64.756 8.10795 66.3242 8.10795C68.6253 8.10795 70.4364 8.59801 71.7574 9.57812C73.087 10.5582 73.9094 11.8835 74.2248 13.554Z" fill="#181D27"/>
</svg>
