<svg width="165" height="29" viewBox="0 0 165 29" fill="none" xmlns="http://www.w3.org/2000/svg">
<path d="M0.582386 28V1.81818H17.6108V5.79403H5.32528V12.902H16.7287V16.8778H5.32528V24.0241H17.7131V28H0.582386ZM28.812 28.3452C27.2693 28.3452 25.8887 27.9489 24.6699 27.1562C23.4512 26.3636 22.4881 25.2131 21.7807 23.7045C21.0733 22.196 20.7196 20.3636 20.7196 18.2074C20.7196 16.0256 21.0776 14.1847 21.7935 12.6847C22.5179 11.1761 23.4938 10.0384 24.7211 9.27131C25.9483 8.49574 27.3162 8.10795 28.8247 8.10795C29.9753 8.10795 30.9213 8.30398 31.6628 8.69602C32.4043 9.07954 32.9924 9.54403 33.427 10.0895C33.8617 10.6264 34.1983 11.1335 34.437 11.6108H34.6287V1.81818H39.2693V28H34.7182V24.9062H34.437C34.1983 25.3835 33.8532 25.8906 33.4015 26.4276C32.9497 26.956 32.3532 27.4077 31.6117 27.7827C30.8702 28.1577 29.937 28.3452 28.812 28.3452ZM30.1032 24.5483C31.0833 24.5483 31.9185 24.2841 32.6088 23.7557C33.2992 23.2187 33.8233 22.473 34.1813 21.5185C34.5392 20.5639 34.7182 19.4517 34.7182 18.1818C34.7182 16.9119 34.5392 15.8082 34.1813 14.8707C33.8318 13.9332 33.312 13.2045 32.6216 12.6847C31.9398 12.1648 31.1003 11.9048 30.1032 11.9048C29.0719 11.9048 28.2111 12.1733 27.5208 12.7102C26.8304 13.2472 26.3105 13.9886 25.9611 14.9347C25.6117 15.8807 25.437 16.9631 25.437 18.1818C25.437 19.4091 25.6117 20.5043 25.9611 21.4673C26.3191 22.4219 26.8432 23.1761 27.5336 23.7301C28.2324 24.2756 29.089 24.5483 30.1032 24.5483ZM55.9964 19.7415V8.36364H60.6243V28H56.1371V24.5099H55.9325C55.4893 25.6094 54.7606 26.5085 53.7464 27.2074C52.7408 27.9062 51.5007 28.2557 50.0263 28.2557C48.7393 28.2557 47.6016 27.9702 46.6129 27.3991C45.6328 26.8196 44.8658 25.9801 44.3118 24.8807C43.7578 23.7727 43.4808 22.4347 43.4808 20.8665V8.36364H48.1087V20.1506C48.1087 21.3949 48.4496 22.3835 49.1314 23.1165C49.8132 23.8494 50.7081 24.2159 51.816 24.2159C52.4979 24.2159 53.1584 24.0497 53.7976 23.7173C54.4368 23.3849 54.9609 22.8906 55.37 22.2344C55.7876 21.5696 55.9964 20.7386 55.9964 19.7415ZM73.2285 28.3835C71.2683 28.3835 69.585 27.9531 68.1788 27.0923C66.781 26.2315 65.7029 25.0426 64.9444 23.5256C64.1944 22 63.8194 20.2443 63.8194 18.2585C63.8194 16.2642 64.2029 14.5043 64.97 12.9787C65.737 11.4446 66.8194 10.2514 68.2171 9.39915C69.6234 8.53835 71.2853 8.10795 73.2029 8.10795C74.7967 8.10795 76.2072 8.40199 77.4345 8.99006C78.6703 9.5696 79.6546 10.392 80.3876 11.4574C81.1205 12.5142 81.5382 13.75 81.6404 15.1648H77.2171C77.0382 14.2187 76.612 13.4304 75.9387 12.7997C75.2739 12.1605 74.3833 11.8409 73.2668 11.8409C72.3208 11.8409 71.4899 12.0966 70.7739 12.608C70.058 13.1108 69.4998 13.8352 69.0992 14.7812C68.7072 15.7273 68.5112 16.8608 68.5112 18.1818C68.5112 19.5199 68.7072 20.6705 69.0992 21.6335C69.4913 22.5881 70.041 23.3253 70.7484 23.8452C71.4643 24.3565 72.3038 24.6122 73.2668 24.6122C73.9487 24.6122 74.558 24.4844 75.095 24.2287C75.6404 23.9645 76.0964 23.5852 76.4629 23.0909C76.8293 22.5966 77.0808 21.9957 77.2171 21.2884H81.6404C81.5296 22.6776 81.1205 23.9091 80.4131 24.983C79.7058 26.0483 78.7427 26.8835 77.5239 27.4886C76.3052 28.0852 74.8734 28.3835 73.2285 28.3835ZM90.3711 28.3963C89.1268 28.3963 88.006 28.1747 87.0089 27.7315C86.0202 27.2798 85.2361 26.6151 84.6566 25.7372C84.0856 24.8594 83.8 23.777 83.8 22.4901C83.8 21.3821 84.0046 20.4659 84.4137 19.7415C84.8228 19.017 85.381 18.4375 86.0884 18.0028C86.7958 17.5682 87.5927 17.2401 88.479 17.0185C89.3739 16.7884 90.2986 16.6222 91.2532 16.5199C92.4037 16.4006 93.337 16.294 94.0529 16.2003C94.7688 16.098 95.2887 15.9446 95.6125 15.7401C95.9449 15.527 96.1111 15.1989 96.1111 14.7557V14.679C96.1111 13.7159 95.8256 12.9702 95.2546 12.4418C94.6836 11.9134 93.8611 11.6491 92.7873 11.6491C91.6537 11.6491 90.7546 11.8963 90.0898 12.3906C89.4336 12.8849 88.9904 13.4687 88.7603 14.142L84.4392 13.5284C84.7802 12.3352 85.3427 11.3381 86.1268 10.5369C86.9108 9.72727 87.8696 9.12216 89.0032 8.72159C90.1367 8.3125 91.3895 8.10795 92.7617 8.10795C93.7077 8.10795 94.6495 8.21875 95.587 8.44034C96.5245 8.66193 97.381 9.02841 98.1566 9.53977C98.9321 10.0426 99.5543 10.7287 100.023 11.598C100.5 12.4673 100.739 13.554 100.739 14.858V28H96.2901V25.3026H96.1367C95.8554 25.848 95.4591 26.3594 94.9478 26.8366C94.4449 27.3054 93.81 27.6847 93.0429 27.9744C92.2844 28.2557 91.3938 28.3963 90.3711 28.3963ZM91.5728 24.9957C92.5018 24.9957 93.3071 24.8125 93.989 24.446C94.6708 24.071 95.1949 23.5767 95.5614 22.9631C95.9364 22.3494 96.1239 21.6804 96.1239 20.956V18.642C95.979 18.7614 95.7319 18.8722 95.3824 18.9744C95.0415 19.0767 94.658 19.1662 94.2319 19.2429C93.8057 19.3196 93.3839 19.3878 92.9662 19.4474C92.5486 19.5071 92.1864 19.5582 91.8796 19.6009C91.1893 19.6946 90.5714 19.848 90.0259 20.0611C89.4804 20.2741 89.05 20.5724 88.7347 20.956C88.4194 21.331 88.2617 21.8168 88.2617 22.4134C88.2617 23.2656 88.5728 23.9091 89.1949 24.3438C89.8171 24.7784 90.6097 24.9957 91.5728 24.9957ZM114.478 8.36364V11.9432H103.189V8.36364H114.478ZM105.976 3.65909H110.604V22.0938C110.604 22.7159 110.698 23.1932 110.885 23.5256C111.081 23.8494 111.337 24.071 111.652 24.1903C111.968 24.3097 112.317 24.3693 112.701 24.3693C112.991 24.3693 113.255 24.348 113.493 24.3054C113.741 24.2628 113.928 24.2244 114.056 24.1903L114.836 27.8082C114.589 27.8935 114.235 27.9872 113.775 28.0895C113.323 28.1918 112.769 28.2514 112.113 28.2685C110.954 28.3026 109.91 28.1278 108.981 27.7443C108.052 27.3523 107.314 26.7472 106.769 25.929C106.232 25.1108 105.968 24.0881 105.976 22.8608V3.65909ZM117.628 28V8.36364H122.256V28H117.628ZM119.955 5.5767C119.222 5.5767 118.591 5.33381 118.063 4.84801C117.534 4.35369 117.27 3.76136 117.27 3.07102C117.27 2.37216 117.534 1.77983 118.063 1.29403C118.591 0.799715 119.222 0.552556 119.955 0.552556C120.696 0.552556 121.327 0.799715 121.847 1.29403C122.375 1.77983 122.64 2.37216 122.64 3.07102C122.64 3.76136 122.375 4.35369 121.847 4.84801C121.327 5.33381 120.696 5.5767 119.955 5.5767ZM134.86 28.3835C132.943 28.3835 131.281 27.9616 129.874 27.1179C128.468 26.2741 127.377 25.0937 126.602 23.5767C125.835 22.0597 125.451 20.2869 125.451 18.2585C125.451 16.2301 125.835 14.4531 126.602 12.9276C127.377 11.402 128.468 10.2173 129.874 9.37358C131.281 8.52983 132.943 8.10795 134.86 8.10795C136.778 8.10795 138.44 8.52983 139.846 9.37358C141.252 10.2173 142.339 11.402 143.106 12.9276C143.882 14.4531 144.269 16.2301 144.269 18.2585C144.269 20.2869 143.882 22.0597 143.106 23.5767C142.339 25.0937 141.252 26.2741 139.846 27.1179C138.44 27.9616 136.778 28.3835 134.86 28.3835ZM134.886 24.6761C135.926 24.6761 136.795 24.3906 137.494 23.8196C138.193 23.2401 138.712 22.4645 139.053 21.4929C139.403 20.5213 139.578 19.4389 139.578 18.2457C139.578 17.044 139.403 15.9574 139.053 14.9858C138.712 14.0057 138.193 13.2259 137.494 12.6463C136.795 12.0668 135.926 11.777 134.886 11.777C133.82 11.777 132.934 12.0668 132.227 12.6463C131.528 13.2259 131.004 14.0057 130.654 14.9858C130.313 15.9574 130.143 17.044 130.143 18.2457C130.143 19.4389 130.313 20.5213 130.654 21.4929C131.004 22.4645 131.528 23.2401 132.227 23.8196C132.934 24.3906 133.82 24.6761 134.886 24.6761ZM152.105 16.4943V28H147.477V8.36364H151.901V11.7003H152.131C152.582 10.6009 153.303 9.72727 154.291 9.07955C155.288 8.43182 156.52 8.10795 157.986 8.10795C159.341 8.10795 160.521 8.39773 161.527 8.97727C162.541 9.55682 163.325 10.3963 163.879 11.4957C164.442 12.5952 164.719 13.929 164.71 15.4972V28H160.082V16.2131C160.082 14.9006 159.741 13.8736 159.06 13.1321C158.386 12.3906 157.453 12.0199 156.26 12.0199C155.45 12.0199 154.73 12.1989 154.099 12.5568C153.477 12.9062 152.987 13.4134 152.629 14.0781C152.28 14.7429 152.105 15.5483 152.105 16.4943Z" fill="#181D27"/>
</svg>
