<svg width="112" height="28" viewBox="0 0 112 28" fill="none" xmlns="http://www.w3.org/2000/svg">
<path d="M23.9929 9.65199H19.2116C19.0753 8.8679 18.8239 8.17329 18.4574 7.56818C18.0909 6.95454 17.6349 6.43466 17.0895 6.00852C16.544 5.58239 15.9219 5.26278 15.223 5.04972C14.5327 4.82813 13.7869 4.71733 12.9858 4.71733C11.5625 4.71733 10.3011 5.07528 9.2017 5.79119C8.10227 6.49858 7.24148 7.53835 6.61932 8.91051C5.99716 10.2741 5.68608 11.9403 5.68608 13.9091C5.68608 15.9119 5.99716 17.5994 6.61932 18.9716C7.25 20.3352 8.1108 21.3665 9.2017 22.0653C10.3011 22.7557 11.5582 23.1009 12.973 23.1009C13.7571 23.1009 14.4901 22.9986 15.1719 22.794C15.8622 22.581 16.4801 22.2699 17.0256 21.8608C17.5795 21.4517 18.044 20.9489 18.419 20.3523C18.8026 19.7557 19.0668 19.0739 19.2116 18.3068L23.9929 18.3324C23.8139 19.5767 23.4261 20.7443 22.8295 21.8352C22.2415 22.9261 21.4702 23.8892 20.5156 24.7244C19.5611 25.5511 18.4446 26.1989 17.1662 26.6676C15.8878 27.1278 14.4688 27.358 12.9091 27.358C10.608 27.358 8.55398 26.8253 6.74716 25.7599C4.94034 24.6946 3.51705 23.1562 2.47727 21.1449C1.4375 19.1335 0.917614 16.7216 0.917614 13.9091C0.917614 11.0881 1.44176 8.67614 2.49006 6.6733C3.53835 4.66193 4.96591 3.12358 6.77273 2.05824C8.57955 0.992897 10.625 0.460226 12.9091 0.460226C14.3665 0.460226 15.7216 0.664772 16.9744 1.07386C18.2273 1.48295 19.3438 2.08381 20.3239 2.87642C21.304 3.66051 22.1094 4.62358 22.7401 5.76562C23.3793 6.89915 23.7969 8.1946 23.9929 9.65199ZM32.0396 15.4943V27H27.4117V0.818181H31.9373V10.7003H32.1674C32.6277 9.59233 33.3393 8.71875 34.3024 8.07955C35.274 7.43182 36.5098 7.10795 38.0098 7.10795C39.3734 7.10795 40.5623 7.39347 41.5765 7.96449C42.5907 8.53551 43.3748 9.37074 43.9288 10.4702C44.4913 11.5696 44.7725 12.9119 44.7725 14.4972V27H40.1447V15.2131C40.1447 13.892 39.8038 12.8651 39.122 12.1321C38.4487 11.3906 37.5027 11.0199 36.2839 11.0199C35.4657 11.0199 34.7328 11.1989 34.085 11.5568C33.4458 11.9062 32.943 12.4134 32.5765 13.0781C32.2186 13.7429 32.0396 14.5483 32.0396 15.4943ZM54.4204 27.3963C53.1761 27.3963 52.0554 27.1747 51.0582 26.7315C50.0696 26.2798 49.2855 25.6151 48.706 24.7372C48.1349 23.8594 47.8494 22.777 47.8494 21.4901C47.8494 20.3821 48.054 19.4659 48.4631 18.7415C48.8721 18.017 49.4304 17.4375 50.1378 17.0028C50.8452 16.5682 51.642 16.2401 52.5284 16.0185C53.4233 15.7884 54.348 15.6222 55.3025 15.5199C56.4531 15.4006 57.3864 15.294 58.1023 15.2003C58.8182 15.098 59.3381 14.9446 59.6619 14.7401C59.9943 14.527 60.1605 14.1989 60.1605 13.7557V13.679C60.1605 12.7159 59.875 11.9702 59.304 11.4418C58.7329 10.9134 57.9105 10.6491 56.8366 10.6491C55.7031 10.6491 54.804 10.8963 54.1392 11.3906C53.4829 11.8849 53.0398 12.4687 52.8096 13.142L48.4886 12.5284C48.8295 11.3352 49.392 10.3381 50.1761 9.53693C50.9602 8.72727 51.919 8.12216 53.0525 7.72159C54.1861 7.3125 55.4389 7.10795 56.8111 7.10795C57.7571 7.10795 58.6989 7.21875 59.6364 7.44034C60.5739 7.66193 61.4304 8.02841 62.206 8.53977C62.9815 9.04261 63.6037 9.72869 64.0724 10.598C64.5497 11.4673 64.7883 12.554 64.7883 13.858V27H60.3395V24.3026H60.1861C59.9048 24.848 59.5085 25.3594 58.9971 25.8366C58.4943 26.3054 57.8594 26.6847 57.0923 26.9744C56.3338 27.2557 55.4432 27.3963 54.4204 27.3963ZM55.6221 23.9957C56.5511 23.9957 57.3565 23.8125 58.0383 23.446C58.7202 23.071 59.2443 22.5767 59.6108 21.9631C59.9858 21.3494 60.1733 20.6804 60.1733 19.956V17.642C60.0284 17.7614 59.7812 17.8722 59.4318 17.9744C59.0909 18.0767 58.7074 18.1662 58.2812 18.2429C57.8551 18.3196 57.4332 18.3878 57.0156 18.4474C56.598 18.5071 56.2358 18.5582 55.929 18.6009C55.2386 18.6946 54.6207 18.848 54.0753 19.0611C53.5298 19.2741 53.0994 19.5724 52.7841 19.956C52.4687 20.331 52.3111 20.8168 52.3111 21.4134C52.3111 22.2656 52.6221 22.9091 53.2443 23.3438C53.8665 23.7784 54.6591 23.9957 55.6221 23.9957ZM68.7217 27V7.36364H73.209V10.6364H73.4135C73.7715 9.50284 74.3851 8.62926 75.2544 8.01562C76.1323 7.39347 77.1337 7.08239 78.2587 7.08239C78.5144 7.08239 78.7999 7.09517 79.1152 7.12074C79.4391 7.13778 79.7075 7.16761 79.9206 7.21023V11.4673C79.7246 11.3991 79.4135 11.3395 78.9874 11.2884C78.5698 11.2287 78.1649 11.1989 77.7729 11.1989C76.9291 11.1989 76.1706 11.3821 75.4973 11.7486C74.8325 12.1065 74.3084 12.6051 73.9249 13.2443C73.5413 13.8835 73.3496 14.6207 73.3496 15.456V27H68.7217ZM93.1353 7.36364V10.9432H81.8469V7.36364H93.1353ZM84.6339 2.65909H89.2617V21.0938C89.2617 21.7159 89.3554 22.1932 89.5429 22.5256C89.739 22.8494 89.9946 23.071 90.31 23.1903C90.6253 23.3097 90.9748 23.3693 91.3583 23.3693C91.6481 23.3693 91.9123 23.348 92.1509 23.3054C92.3981 23.2628 92.5856 23.2244 92.7134 23.1903L93.4932 26.8082C93.2461 26.8935 92.8924 26.9872 92.4321 27.0895C91.9804 27.1918 91.4265 27.2514 90.7702 27.2685C89.6111 27.3026 88.5671 27.1278 87.6381 26.7443C86.7091 26.3523 85.9719 25.7472 85.4265 24.929C84.8895 24.1108 84.6253 23.0881 84.6339 21.8608V2.65909ZM111.524 12.554L107.306 13.0142C107.186 12.5881 106.977 12.1875 106.679 11.8125C106.389 11.4375 105.997 11.1349 105.503 10.9048C105.009 10.6747 104.404 10.5597 103.688 10.5597C102.725 10.5597 101.915 10.7685 101.259 11.1861C100.611 11.6037 100.291 12.1449 100.3 12.8097C100.291 13.3807 100.5 13.8452 100.926 14.2031C101.361 14.5611 102.077 14.8551 103.074 15.0852L106.423 15.8011C108.281 16.2017 109.662 16.8366 110.565 17.706C111.477 18.5753 111.938 19.7131 111.946 21.1193C111.938 22.3551 111.575 23.446 110.86 24.392C110.152 25.3295 109.168 26.0625 107.906 26.5909C106.645 27.1193 105.196 27.3835 103.56 27.3835C101.156 27.3835 99.2217 26.8807 97.7558 25.875C96.2899 24.8608 95.4163 23.4503 95.1351 21.6435L99.6479 21.2088C99.8524 22.0952 100.287 22.7642 100.952 23.2159C101.617 23.6676 102.482 23.8935 103.547 23.8935C104.646 23.8935 105.529 23.6676 106.193 23.2159C106.867 22.7642 107.203 22.206 107.203 21.5412C107.203 20.9787 106.986 20.5142 106.551 20.1477C106.125 19.7812 105.46 19.5 104.557 19.304L101.208 18.6009C99.324 18.2088 97.9305 17.5483 97.0271 16.6193C96.1237 15.6818 95.6763 14.4972 95.6848 13.0653C95.6763 11.8551 96.0044 10.8068 96.6692 9.92045C97.3425 9.02557 98.2757 8.33523 99.4689 7.84943C100.671 7.35511 102.056 7.10795 103.624 7.10795C105.925 7.10795 107.736 7.59801 109.057 8.57812C110.387 9.55824 111.209 10.8835 111.524 12.554Z" fill="#181D27"/>
</svg>
