<svg width="83" height="29" viewBox="0 0 83 29" fill="none" xmlns="http://www.w3.org/2000/svg">
<path d="M0.431818 5.79403V1.81818H21.321V5.79403H13.2287V28H8.52415V5.79403H0.431818ZM24.4235 28V8.36364H29.0513V28H24.4235ZM26.7502 5.5767C26.0172 5.5767 25.3865 5.33381 24.8581 4.84801C24.3297 4.35369 24.0655 3.76136 24.0655 3.07102C24.0655 2.37216 24.3297 1.77983 24.8581 1.29403C25.3865 0.799715 26.0172 0.552556 26.7502 0.552556C27.4916 0.552556 28.1223 0.799715 28.6422 1.29403C29.1706 1.77983 29.4348 2.37216 29.4348 3.07102C29.4348 3.76136 29.1706 4.35369 28.6422 4.84801C28.1223 5.33381 27.4916 5.5767 26.7502 5.5767ZM33.0902 28V8.36364H37.5135V11.7003H37.7436C38.1527 10.5753 38.8302 9.69744 39.7763 9.06676C40.7223 8.42756 41.8515 8.10795 43.164 8.10795C44.4936 8.10795 45.6143 8.43182 46.5263 9.07955C47.4467 9.71875 48.0944 10.5923 48.4694 11.7003H48.674C49.1087 10.6094 49.8416 9.74006 50.8729 9.09233C51.9126 8.43608 53.1442 8.10795 54.5675 8.10795C56.3743 8.10795 57.8487 8.67898 58.9908 9.82102C60.1328 10.9631 60.7038 12.6293 60.7038 14.8196V28H56.0632V15.5355C56.0632 14.3168 55.7393 13.4261 55.0916 12.8636C54.4439 12.2926 53.6513 12.0071 52.7138 12.0071C51.5973 12.0071 50.7237 12.3565 50.093 13.0554C49.4709 13.7457 49.1598 14.6449 49.1598 15.7528V28H44.6214V15.3438C44.6214 14.3295 44.3146 13.5199 43.701 12.9148C43.0959 12.3097 42.3033 12.0071 41.3231 12.0071C40.6584 12.0071 40.0533 12.1776 39.5078 12.5185C38.9623 12.8509 38.5277 13.3239 38.2038 13.9375C37.88 14.5426 37.718 15.25 37.718 16.0597V28H33.0902ZM73.372 28.3835C71.4032 28.3835 69.7029 27.9744 68.2711 27.1562C66.8478 26.3295 65.7526 25.1619 64.9856 23.6534C64.2186 22.1364 63.835 20.3509 63.835 18.2969C63.835 16.277 64.2186 14.5043 64.9856 12.9787C65.7612 11.4446 66.8436 10.2514 68.2328 9.39915C69.622 8.53835 71.2541 8.10795 73.1291 8.10795C74.3393 8.10795 75.4813 8.30398 76.5552 8.69602C77.6376 9.07954 78.5921 9.67614 79.4188 10.4858C80.2541 11.2955 80.9103 12.3267 81.3876 13.5795C81.8649 14.8239 82.1035 16.3068 82.1035 18.0284V19.4474H66.0083V16.3281H77.6674C77.6589 15.4418 77.4671 14.6534 77.0921 13.9631C76.7171 13.2642 76.193 12.7145 75.5197 12.3139C74.8549 11.9134 74.0793 11.7131 73.193 11.7131C72.247 11.7131 71.416 11.9432 70.7001 12.4034C69.9842 12.8551 69.4259 13.4517 69.0254 14.1932C68.6333 14.9261 68.433 15.7315 68.4245 16.6094V19.3324C68.4245 20.4744 68.6333 21.4545 69.0509 22.2727C69.4686 23.0824 70.0524 23.7045 70.8024 24.1392C71.5524 24.5653 72.4302 24.7784 73.4359 24.7784C74.1092 24.7784 74.7186 24.6847 75.264 24.4972C75.8095 24.3011 76.2825 24.0156 76.683 23.6406C77.0836 23.2656 77.3862 22.8011 77.5907 22.2472L81.9117 22.733C81.639 23.875 81.1191 24.8722 80.3521 25.7244C79.5936 26.5682 78.622 27.2244 77.4373 27.6932C76.2526 28.1534 74.8975 28.3835 73.372 28.3835Z" fill="#181D27"/>
</svg>
