<svg width="124" height="35" viewBox="0 0 124 35" fill="none" xmlns="http://www.w3.org/2000/svg">
<path d="M15.8111 8.01562C15.6918 6.89915 15.1889 6.02983 14.3026 5.40767C13.4247 4.78551 12.2827 4.47443 10.8764 4.47443C9.88778 4.47443 9.03977 4.62358 8.33239 4.92188C7.625 5.22017 7.08381 5.625 6.70881 6.13636C6.33381 6.64773 6.14205 7.23153 6.13352 7.88778C6.13352 8.43324 6.2571 8.90625 6.50426 9.30682C6.75994 9.70739 7.10511 10.0483 7.53977 10.3295C7.97443 10.6023 8.45597 10.8324 8.98438 11.0199C9.51278 11.2074 10.0455 11.3651 10.5824 11.4929L13.0369 12.1065C14.0256 12.3366 14.9759 12.6477 15.8878 13.0398C16.8082 13.4318 17.6307 13.9261 18.3551 14.5227C19.0881 15.1193 19.6676 15.8395 20.0938 16.6832C20.5199 17.527 20.733 18.5156 20.733 19.6491C20.733 21.1832 20.3409 22.5341 19.5568 23.7017C18.7727 24.8608 17.6392 25.7685 16.1562 26.4247C14.6818 27.0724 12.8963 27.3963 10.7997 27.3963C8.76278 27.3963 6.99432 27.081 5.49432 26.4503C4.00284 25.8196 2.83523 24.8991 1.99148 23.6889C1.15625 22.4787 0.704546 21.0043 0.636364 19.2656H5.30256C5.37074 20.1776 5.65199 20.9361 6.14631 21.5412C6.64063 22.1463 7.28409 22.598 8.0767 22.8963C8.87784 23.1946 9.77273 23.3438 10.7614 23.3438C11.7926 23.3438 12.696 23.1903 13.4716 22.8835C14.2557 22.5682 14.8693 22.1335 15.3125 21.5795C15.7557 21.017 15.9815 20.3608 15.9901 19.6108C15.9815 18.929 15.7813 18.3665 15.3892 17.9233C14.9972 17.4716 14.4474 17.0966 13.7401 16.7983C13.0412 16.4915 12.223 16.2187 11.2855 15.9801L8.30682 15.2131C6.15057 14.6591 4.44602 13.8196 3.19318 12.6946C1.94886 11.5611 1.3267 10.0568 1.3267 8.18182C1.3267 6.6392 1.74432 5.28835 2.57955 4.12926C3.4233 2.97017 4.5696 2.07102 6.01847 1.43182C7.46733 0.78409 9.10796 0.460226 10.9403 0.460226C12.7983 0.460226 14.4261 0.78409 15.8239 1.43182C17.2301 2.07102 18.3338 2.96165 19.1349 4.10369C19.9361 5.23721 20.3494 6.54119 20.375 8.01562H15.8111ZM28.6646 15.4943V27H24.0367V0.818181H28.5623V10.7003H28.7924C29.2527 9.59233 29.9643 8.71875 30.9274 8.07955C31.899 7.43182 33.1348 7.10795 34.6348 7.10795C35.9984 7.10795 37.1873 7.39347 38.2015 7.96449C39.2157 8.53551 39.9998 9.37074 40.5538 10.4702C41.1163 11.5696 41.3975 12.9119 41.3975 14.4972V27H36.7697V15.2131C36.7697 13.892 36.4288 12.8651 35.747 12.1321C35.0737 11.3906 34.1277 11.0199 32.9089 11.0199C32.0907 11.0199 31.3578 11.1989 30.71 11.5568C30.0708 11.9062 29.568 12.4134 29.2015 13.0781C28.8436 13.7429 28.6646 14.5483 28.6646 15.4943ZM51.0454 27.3963C49.8011 27.3963 48.6804 27.1747 47.6832 26.7315C46.6946 26.2798 45.9105 25.6151 45.331 24.7372C44.7599 23.8594 44.4744 22.777 44.4744 21.4901C44.4744 20.3821 44.679 19.4659 45.0881 18.7415C45.4971 18.017 46.0554 17.4375 46.7628 17.0028C47.4702 16.5682 48.267 16.2401 49.1534 16.0185C50.0483 15.7884 50.973 15.6222 51.9275 15.5199C53.0781 15.4006 54.0114 15.294 54.7273 15.2003C55.4432 15.098 55.9631 14.9446 56.2869 14.7401C56.6193 14.527 56.7855 14.1989 56.7855 13.7557V13.679C56.7855 12.7159 56.5 11.9702 55.929 11.4418C55.3579 10.9134 54.5355 10.6491 53.4616 10.6491C52.3281 10.6491 51.429 10.8963 50.7642 11.3906C50.1079 11.8849 49.6648 12.4687 49.4346 13.142L45.1136 12.5284C45.4545 11.3352 46.017 10.3381 46.8011 9.53693C47.5852 8.72727 48.544 8.12216 49.6775 7.72159C50.8111 7.3125 52.0639 7.10795 53.4361 7.10795C54.3821 7.10795 55.3239 7.21875 56.2614 7.44034C57.1989 7.66193 58.0554 8.02841 58.831 8.53977C59.6065 9.04261 60.2287 9.72869 60.6974 10.598C61.1747 11.4673 61.4133 12.554 61.4133 13.858V27H56.9645V24.3026H56.8111C56.5298 24.848 56.1335 25.3594 55.6221 25.8366C55.1193 26.3054 54.4844 26.6847 53.7173 26.9744C52.9588 27.2557 52.0682 27.3963 51.0454 27.3963ZM52.2471 23.9957C53.1761 23.9957 53.9815 23.8125 54.6633 23.446C55.3452 23.071 55.8693 22.5767 56.2358 21.9631C56.6108 21.3494 56.7983 20.6804 56.7983 19.956V17.642C56.6534 17.7614 56.4062 17.8722 56.0568 17.9744C55.7159 18.0767 55.3324 18.1662 54.9062 18.2429C54.4801 18.3196 54.0582 18.3878 53.6406 18.4474C53.223 18.5071 52.8608 18.5582 52.554 18.6009C51.8636 18.6946 51.2457 18.848 50.7003 19.0611C50.1548 19.2741 49.7244 19.5724 49.4091 19.956C49.0937 20.331 48.9361 20.8168 48.9361 21.4134C48.9361 22.2656 49.2471 22.9091 49.8693 23.3438C50.4915 23.7784 51.2841 23.9957 52.2471 23.9957ZM65.3467 34.3636V7.36364H69.8979V10.6108H70.1663C70.405 10.1335 70.7416 9.62642 71.1763 9.08949C71.611 8.54403 72.199 8.07954 72.9405 7.69602C73.682 7.30398 74.628 7.10795 75.7786 7.10795C77.2956 7.10795 78.6635 7.49574 79.8823 8.27131C81.1095 9.03835 82.0811 10.1761 82.797 11.6847C83.5215 13.1847 83.8837 15.0256 83.8837 17.2074C83.8837 19.3636 83.53 21.196 82.8226 22.7045C82.1152 24.2131 81.1521 25.3636 79.9334 26.1562C78.7146 26.9489 77.334 27.3452 75.7914 27.3452C74.6664 27.3452 73.7331 27.1577 72.9916 26.7827C72.2502 26.4077 71.6536 25.956 71.2019 25.4276C70.7587 24.8906 70.4135 24.3835 70.1663 23.9062H69.9746V34.3636H65.3467ZM69.8851 17.1818C69.8851 18.4517 70.0641 19.5639 70.422 20.5185C70.7885 21.473 71.3127 22.2187 71.9945 22.7557C72.6848 23.2841 73.52 23.5483 74.5002 23.5483C75.5229 23.5483 76.3794 23.2756 77.0698 22.7301C77.7601 22.1761 78.28 21.4219 78.6294 20.4673C78.9874 19.5043 79.1664 18.4091 79.1664 17.1818C79.1664 15.9631 78.9916 14.8807 78.6422 13.9347C78.2928 12.9886 77.7729 12.2472 77.0825 11.7102C76.3922 11.1733 75.5314 10.9048 74.5002 10.9048C73.5115 10.9048 72.672 11.1648 71.9817 11.6847C71.2914 12.2045 70.7672 12.9332 70.4092 13.8707C70.0598 14.8082 69.8851 15.9119 69.8851 17.1818ZM95.8199 27.3835C93.8512 27.3835 92.1509 26.9744 90.7191 26.1562C89.2958 25.3295 88.2006 24.1619 87.4336 22.6534C86.6665 21.1364 86.283 19.3509 86.283 17.2969C86.283 15.277 86.6665 13.5043 87.4336 11.9787C88.2091 10.4446 89.2915 9.25142 90.6807 8.39915C92.0699 7.53835 93.702 7.10795 95.577 7.10795C96.7873 7.10795 97.9293 7.30398 99.0032 7.69602C100.086 8.07954 101.04 8.67614 101.867 9.4858C102.702 10.2955 103.358 11.3267 103.836 12.5795C104.313 13.8239 104.551 15.3068 104.551 17.0284V18.4474H88.4563V15.3281H100.115C100.107 14.4418 99.9151 13.6534 99.5401 12.9631C99.1651 12.2642 98.641 11.7145 97.9677 11.3139C97.3029 10.9134 96.5273 10.7131 95.641 10.7131C94.6949 10.7131 93.864 10.9432 93.1481 11.4034C92.4321 11.8551 91.8739 12.4517 91.4733 13.1932C91.0813 13.9261 90.881 14.7315 90.8725 15.6094V18.3324C90.8725 19.4744 91.0813 20.4545 91.4989 21.2727C91.9165 22.0824 92.5003 22.7045 93.2503 23.1392C94.0003 23.5653 94.8782 23.7784 95.8839 23.7784C96.5571 23.7784 97.1665 23.6847 97.712 23.4972C98.2574 23.3011 98.7304 23.0156 99.131 22.6406C99.5316 22.2656 99.8341 21.8011 100.039 21.2472L104.36 21.733C104.087 22.875 103.567 23.8722 102.8 24.7244C102.042 25.5682 101.07 26.2244 99.8853 26.6932C98.7006 27.1534 97.3455 27.3835 95.8199 27.3835ZM123.266 12.554L119.048 13.0142C118.928 12.5881 118.72 12.1875 118.421 11.8125C118.132 11.4375 117.739 11.1349 117.245 10.9048C116.751 10.6747 116.146 10.5597 115.43 10.5597C114.467 10.5597 113.657 10.7685 113.001 11.1861C112.353 11.6037 112.034 12.1449 112.042 12.8097C112.034 13.3807 112.242 13.8452 112.668 14.2031C113.103 14.5611 113.819 14.8551 114.816 15.0852L118.166 15.8011C120.024 16.2017 121.404 16.8366 122.308 17.706C123.22 18.5753 123.68 19.7131 123.688 21.1193C123.68 22.3551 123.318 23.446 122.602 24.392C121.894 25.3295 120.91 26.0625 119.649 26.5909C118.387 27.1193 116.938 27.3835 115.302 27.3835C112.899 27.3835 110.964 26.8807 109.498 25.875C108.032 24.8608 107.159 23.4503 106.877 21.6435L111.39 21.2088C111.595 22.0952 112.029 22.7642 112.694 23.2159C113.359 23.6676 114.224 23.8935 115.289 23.8935C116.389 23.8935 117.271 23.6676 117.936 23.2159C118.609 22.7642 118.945 22.206 118.945 21.5412C118.945 20.9787 118.728 20.5142 118.293 20.1477C117.867 19.7812 117.203 19.5 116.299 19.304L112.95 18.6009C111.066 18.2088 109.673 17.5483 108.769 16.6193C107.866 15.6818 107.418 14.4972 107.427 13.0653C107.418 11.8551 107.747 10.8068 108.411 9.92045C109.085 9.02557 110.018 8.33523 111.211 7.84943C112.413 7.35511 113.798 7.10795 115.366 7.10795C117.667 7.10795 119.478 7.59801 120.799 8.57812C122.129 9.55824 122.951 10.8835 123.266 12.554Z" fill="#181D27"/>
</svg>
