<svg width="129" height="28" viewBox="0 0 129 28" fill="none" xmlns="http://www.w3.org/2000/svg">
<path d="M19.1222 9.17898C18.9091 8.48864 18.6151 7.87074 18.2401 7.32528C17.8736 6.77131 17.4304 6.29829 16.9105 5.90625C16.3991 5.5142 15.8111 5.22017 15.1463 5.02415C14.4815 4.8196 13.7571 4.71733 12.973 4.71733C11.5668 4.71733 10.3139 5.07102 9.21449 5.77841C8.11506 6.48579 7.25 7.52557 6.61932 8.89773C5.99716 10.2614 5.68608 11.9233 5.68608 13.8835C5.68608 15.8608 5.99716 17.5355 6.61932 18.9077C7.24148 20.2798 8.10653 21.3239 9.21449 22.0398C10.3224 22.7472 11.6094 23.1009 13.0753 23.1009C14.4048 23.1009 15.5554 22.8452 16.527 22.3338C17.5071 21.8224 18.2614 21.098 18.7898 20.1605C19.3182 19.2145 19.5824 18.1065 19.5824 16.8366L20.6562 17.0028H13.5483V13.2955H24.1719V16.4403C24.1719 18.6818 23.6946 20.6207 22.7401 22.2571C21.7855 23.8935 20.473 25.1548 18.8026 26.0412C17.1321 26.919 15.2145 27.358 13.0497 27.358C10.6378 27.358 8.51989 26.8168 6.69602 25.7344C4.88068 24.6435 3.46165 23.0966 2.43892 21.0938C1.42472 19.0824 0.917614 16.696 0.917614 13.9347C0.917614 11.821 1.21591 9.93324 1.8125 8.27131C2.41761 6.60938 3.26136 5.19886 4.34375 4.03977C5.42614 2.87216 6.69602 1.98579 8.15341 1.38068C9.6108 0.767045 11.196 0.460226 12.9091 0.460226C14.358 0.460226 15.7088 0.673295 16.9616 1.09943C18.2145 1.51704 19.3267 2.11364 20.2983 2.8892C21.2784 3.66477 22.0838 4.58523 22.7145 5.65057C23.3452 6.71591 23.7585 7.89205 23.9545 9.17898H19.1222ZM36.5268 27.3835C34.5581 27.3835 32.8578 26.9744 31.426 26.1562C30.0027 25.3295 28.9075 24.1619 28.1404 22.6534C27.3734 21.1364 26.9899 19.3509 26.9899 17.2969C26.9899 15.277 27.3734 13.5043 28.1404 11.9787C28.916 10.4446 29.9984 9.25142 31.3876 8.39915C32.7768 7.53835 34.4089 7.10795 36.2839 7.10795C37.4941 7.10795 38.6362 7.30398 39.71 7.69602C40.7924 8.07954 41.747 8.67614 42.5737 9.4858C43.4089 10.2955 44.0652 11.3267 44.5424 12.5795C45.0197 13.8239 45.2583 15.3068 45.2583 17.0284V18.4474H29.1632V15.3281H40.8223C40.8137 14.4418 40.622 13.6534 40.247 12.9631C39.872 12.2642 39.3478 11.7145 38.6745 11.3139C38.0098 10.9134 37.2342 10.7131 36.3478 10.7131C35.4018 10.7131 34.5708 10.9432 33.8549 11.4034C33.139 11.8551 32.5808 12.4517 32.1802 13.1932C31.7882 13.9261 31.5879 14.7315 31.5794 15.6094V18.3324C31.5794 19.4744 31.7882 20.4545 32.2058 21.2727C32.6234 22.0824 33.2072 22.7045 33.9572 23.1392C34.7072 23.5653 35.585 23.7784 36.5907 23.7784C37.264 23.7784 37.8734 23.6847 38.4189 23.4972C38.9643 23.3011 39.4373 23.0156 39.8379 22.6406C40.2385 22.2656 40.541 21.8011 40.7456 21.2472L45.0666 21.733C44.7939 22.875 44.274 23.8722 43.5069 24.7244C42.7484 25.5682 41.7768 26.2244 40.5921 26.6932C39.4075 27.1534 38.0524 27.3835 36.5268 27.3835ZM53.0813 15.4943V27H48.4535V7.36364H52.8768V10.7003H53.1069C53.5586 9.60085 54.2788 8.72727 55.2674 8.07955C56.2645 7.43182 57.4961 7.10795 58.962 7.10795C60.3171 7.10795 61.4975 7.39773 62.5032 7.97727C63.5174 8.55682 64.3015 9.39631 64.8555 10.4957C65.418 11.5952 65.6949 12.929 65.6864 14.4972V27H61.0586V15.2131C61.0586 13.9006 60.7177 12.8736 60.0359 12.1321C59.3626 11.3906 58.4293 11.0199 57.2361 11.0199C56.4265 11.0199 55.7063 11.1989 55.0756 11.5568C54.4535 11.9062 53.9634 12.4134 53.6055 13.0781C53.256 13.7429 53.0813 14.5483 53.0813 15.4943ZM78.3641 27.3835C76.3954 27.3835 74.6951 26.9744 73.2633 26.1562C71.84 25.3295 70.7448 24.1619 69.9778 22.6534C69.2107 21.1364 68.8272 19.3509 68.8272 17.2969C68.8272 15.277 69.2107 13.5043 69.9778 11.9787C70.7533 10.4446 71.8357 9.25142 73.2249 8.39915C74.6141 7.53835 76.2462 7.10795 78.1212 7.10795C79.3315 7.10795 80.4735 7.30398 81.5474 7.69602C82.6298 8.07954 83.5843 8.67614 84.411 9.4858C85.2462 10.2955 85.9025 11.3267 86.3798 12.5795C86.857 13.8239 87.0957 15.3068 87.0957 17.0284V18.4474H71.0005V15.3281H82.6596C82.6511 14.4418 82.4593 13.6534 82.0843 12.9631C81.7093 12.2642 81.1852 11.7145 80.5119 11.3139C79.8471 10.9134 79.0715 10.7131 78.1852 10.7131C77.2391 10.7131 76.4082 10.9432 75.6923 11.4034C74.9764 11.8551 74.4181 12.4517 74.0176 13.1932C73.6255 13.9261 73.4252 14.7315 73.4167 15.6094V18.3324C73.4167 19.4744 73.6255 20.4545 74.0431 21.2727C74.4607 22.0824 75.0445 22.7045 75.7945 23.1392C76.5445 23.5653 77.4224 23.7784 78.4281 23.7784C79.1014 23.7784 79.7107 23.6847 80.2562 23.4972C80.8016 23.3011 81.2747 23.0156 81.6752 22.6406C82.0758 22.2656 82.3783 21.8011 82.5829 21.2472L86.9039 21.733C86.6312 22.875 86.1113 23.8722 85.3443 24.7244C84.5857 25.5682 83.6141 26.2244 82.4295 26.6932C81.2448 27.1534 79.8897 27.3835 78.3641 27.3835ZM90.2908 27V7.36364H94.778V10.6364H94.9826C95.3405 9.50284 95.9542 8.62926 96.8235 8.01562C97.7013 7.39347 98.7027 7.08239 99.8277 7.08239C100.083 7.08239 100.369 7.09517 100.684 7.12074C101.008 7.13778 101.277 7.16761 101.49 7.21023V11.4673C101.294 11.3991 100.983 11.3395 100.556 11.2884C100.139 11.2287 99.734 11.1989 99.3419 11.1989C98.4982 11.1989 97.7397 11.3821 97.0664 11.7486C96.4016 12.1065 95.8775 12.6051 95.4939 13.2443C95.1104 13.8835 94.9187 14.6207 94.9187 15.456V27H90.2908ZM109.143 27.3963C107.899 27.3963 106.778 27.1747 105.781 26.7315C104.792 26.2798 104.008 25.6151 103.429 24.7372C102.858 23.8594 102.572 22.777 102.572 21.4901C102.572 20.3821 102.777 19.4659 103.186 18.7415C103.595 18.017 104.153 17.4375 104.861 17.0028C105.568 16.5682 106.365 16.2401 107.251 16.0185C108.146 15.7884 109.071 15.6222 110.025 15.5199C111.176 15.4006 112.109 15.294 112.825 15.2003C113.541 15.098 114.061 14.9446 114.385 14.7401C114.717 14.527 114.883 14.1989 114.883 13.7557V13.679C114.883 12.7159 114.598 11.9702 114.027 11.4418C113.456 10.9134 112.633 10.6491 111.559 10.6491C110.426 10.6491 109.527 10.8963 108.862 11.3906C108.206 11.8849 107.763 12.4687 107.532 13.142L103.211 12.5284C103.552 11.3352 104.115 10.3381 104.899 9.53693C105.683 8.72727 106.642 8.12216 107.775 7.72159C108.909 7.3125 110.162 7.10795 111.534 7.10795C112.48 7.10795 113.422 7.21875 114.359 7.44034C115.297 7.66193 116.153 8.02841 116.929 8.53977C117.704 9.04261 118.326 9.72869 118.795 10.598C119.273 11.4673 119.511 12.554 119.511 13.858V27H115.062V24.3026H114.909C114.628 24.848 114.231 25.3594 113.72 25.8366C113.217 26.3054 112.582 26.6847 111.815 26.9744C111.057 27.2557 110.166 27.3963 109.143 27.3963ZM110.345 23.9957C111.274 23.9957 112.079 23.8125 112.761 23.446C113.443 23.071 113.967 22.5767 114.334 21.9631C114.709 21.3494 114.896 20.6804 114.896 19.956V17.642C114.751 17.7614 114.504 17.8722 114.155 17.9744C113.814 18.0767 113.43 18.1662 113.004 18.2429C112.578 18.3196 112.156 18.3878 111.738 18.4474C111.321 18.5071 110.959 18.5582 110.652 18.6009C109.961 18.6946 109.344 18.848 108.798 19.0611C108.253 19.2741 107.822 19.5724 107.507 19.956C107.192 20.331 107.034 20.8168 107.034 21.4134C107.034 22.2656 107.345 22.9091 107.967 23.3438C108.589 23.7784 109.382 23.9957 110.345 23.9957ZM128.072 0.818181V27H123.445V0.818181H128.072Z" fill="#181D27"/>
</svg>
