<svg width="263" height="29" viewBox="0 0 263 29" fill="none" xmlns="http://www.w3.org/2000/svg">
<path d="M23.9929 10.652H19.2116C19.0753 9.8679 18.8239 9.17329 18.4574 8.56818C18.0909 7.95454 17.6349 7.43466 17.0895 7.00852C16.544 6.58239 15.9219 6.26278 15.223 6.04972C14.5327 5.82813 13.7869 5.71733 12.9858 5.71733C11.5625 5.71733 10.3011 6.07528 9.2017 6.79119C8.10227 7.49858 7.24148 8.53835 6.61932 9.91051C5.99716 11.2741 5.68608 12.9403 5.68608 14.9091C5.68608 16.9119 5.99716 18.5994 6.61932 19.9716C7.25 21.3352 8.1108 22.3665 9.2017 23.0653C10.3011 23.7557 11.5582 24.1009 12.973 24.1009C13.7571 24.1009 14.4901 23.9986 15.1719 23.794C15.8622 23.581 16.4801 23.2699 17.0256 22.8608C17.5795 22.4517 18.044 21.9489 18.419 21.3523C18.8026 20.7557 19.0668 20.0739 19.2116 19.3068L23.9929 19.3324C23.8139 20.5767 23.4261 21.7443 22.8295 22.8352C22.2415 23.9261 21.4702 24.8892 20.5156 25.7244C19.5611 26.5511 18.4446 27.1989 17.1662 27.6676C15.8878 28.1278 14.4688 28.358 12.9091 28.358C10.608 28.358 8.55398 27.8253 6.74716 26.7599C4.94034 25.6946 3.51705 24.1562 2.47727 22.1449C1.4375 20.1335 0.917614 17.7216 0.917614 14.9091C0.917614 12.0881 1.44176 9.67614 2.49006 7.6733C3.53835 5.66193 4.96591 4.12358 6.77273 3.05824C8.57955 1.9929 10.625 1.46023 12.9091 1.46023C14.3665 1.46023 15.7216 1.66477 16.9744 2.07386C18.2273 2.48295 19.3438 3.08381 20.3239 3.87642C21.304 4.66051 22.1094 5.62358 22.7401 6.76562C23.3793 7.89915 23.7969 9.1946 23.9929 10.652ZM35.9771 28.3835C34.0595 28.3835 32.3975 27.9616 30.9913 27.1179C29.585 26.2741 28.4941 25.0937 27.7186 23.5767C26.9515 22.0597 26.568 20.2869 26.568 18.2585C26.568 16.2301 26.9515 14.4531 27.7186 12.9276C28.4941 11.402 29.585 10.2173 30.9913 9.37358C32.3975 8.52983 34.0595 8.10795 35.9771 8.10795C37.8947 8.10795 39.5566 8.52983 40.9629 9.37358C42.3691 10.2173 43.4558 11.402 44.2228 12.9276C44.9984 14.4531 45.3862 16.2301 45.3862 18.2585C45.3862 20.2869 44.9984 22.0597 44.2228 23.5767C43.4558 25.0937 42.3691 26.2741 40.9629 27.1179C39.5566 27.9616 37.8947 28.3835 35.9771 28.3835ZM36.0027 24.6761C37.0424 24.6761 37.9117 24.3906 38.6106 23.8196C39.3095 23.2401 39.8294 22.4645 40.1703 21.4929C40.5197 20.5213 40.6944 19.4389 40.6944 18.2457C40.6944 17.044 40.5197 15.9574 40.1703 14.9858C39.8294 14.0057 39.3095 13.2259 38.6106 12.6463C37.9117 12.0668 37.0424 11.777 36.0027 11.777C34.9373 11.777 34.051 12.0668 33.3436 12.6463C32.6447 13.2259 32.1206 14.0057 31.7711 14.9858C31.4302 15.9574 31.2598 17.044 31.2598 18.2457C31.2598 19.4389 31.4302 20.5213 31.7711 21.4929C32.1206 22.4645 32.6447 23.2401 33.3436 23.8196C34.051 24.3906 34.9373 24.6761 36.0027 24.6761ZM48.5941 28V8.36364H53.0174V11.7003H53.2475C53.6566 10.5753 54.3341 9.69744 55.2802 9.06676C56.2262 8.42756 57.3555 8.10795 58.668 8.10795C59.9975 8.10795 61.1182 8.43182 62.0302 9.07955C62.9506 9.71875 63.5984 10.5923 63.9734 11.7003H64.1779C64.6126 10.6094 65.3455 9.74006 66.3768 9.09233C67.4165 8.43608 68.6481 8.10795 70.0714 8.10795C71.8782 8.10795 73.3526 8.67898 74.4947 9.82102C75.6367 10.9631 76.2077 12.6293 76.2077 14.8196V28H71.5671V15.5355C71.5671 14.3168 71.2432 13.4261 70.5955 12.8636C69.9478 12.2926 69.1552 12.0071 68.2177 12.0071C67.1012 12.0071 66.2276 12.3565 65.5969 13.0554C64.9748 13.7457 64.6637 14.6449 64.6637 15.7528V28H60.1253V15.3438C60.1253 14.3295 59.8185 13.5199 59.2049 12.9148C58.5998 12.3097 57.8072 12.0071 56.827 12.0071C56.1623 12.0071 55.5572 12.1776 55.0117 12.5185C54.4663 12.8509 54.0316 13.3239 53.7077 13.9375C53.3839 14.5426 53.2219 15.25 53.2219 16.0597V28H48.5941ZM80.1827 28V8.36364H84.606V11.7003H84.8361C85.2452 10.5753 85.9227 9.69744 86.8688 9.06676C87.8148 8.42756 88.944 8.10795 90.2565 8.10795C91.5861 8.10795 92.7068 8.43182 93.6188 9.07955C94.5392 9.71875 95.1869 10.5923 95.5619 11.7003H95.7665C96.2011 10.6094 96.9341 9.74006 97.9654 9.09233C99.0051 8.43608 100.237 8.10795 101.66 8.10795C103.467 8.10795 104.941 8.67898 106.083 9.82102C107.225 10.9631 107.796 12.6293 107.796 14.8196V28H103.156V15.5355C103.156 14.3168 102.832 13.4261 102.184 12.8636C101.536 12.2926 100.744 12.0071 99.8063 12.0071C98.6898 12.0071 97.8162 12.3565 97.1855 13.0554C96.5634 13.7457 96.2523 14.6449 96.2523 15.7528V28H91.7139V15.3438C91.7139 14.3295 91.4071 13.5199 90.7935 12.9148C90.1884 12.3097 89.3957 12.0071 88.4156 12.0071C87.7509 12.0071 87.1457 12.1776 86.6003 12.5185C86.0548 12.8509 85.6202 13.3239 85.2963 13.9375C84.9725 14.5426 84.8105 15.25 84.8105 16.0597V28H80.1827ZM124.287 19.7415V8.36364H128.915V28H124.428V24.5099H124.223C123.78 25.6094 123.051 26.5085 122.037 27.2074C121.031 27.9062 119.791 28.2557 118.317 28.2557C117.03 28.2557 115.892 27.9702 114.903 27.3991C113.923 26.8196 113.156 25.9801 112.602 24.8807C112.048 23.7727 111.771 22.4347 111.771 20.8665V8.36364H116.399V20.1506C116.399 21.3949 116.74 22.3835 117.422 23.1165C118.104 23.8494 118.999 24.2159 120.107 24.2159C120.788 24.2159 121.449 24.0497 122.088 23.7173C122.727 23.3849 123.251 22.8906 123.66 22.2344C124.078 21.5696 124.287 20.7386 124.287 19.7415ZM137.581 16.4943V28H132.954V8.36364H137.377V11.7003H137.607C138.059 10.6009 138.779 9.72727 139.768 9.07955C140.765 8.43182 141.996 8.10795 143.462 8.10795C144.817 8.10795 145.998 8.39773 147.003 8.97727C148.018 9.55682 148.802 10.3963 149.356 11.4957C149.918 12.5952 150.195 13.929 150.187 15.4972V28H145.559V16.2131C145.559 14.9006 145.218 13.8736 144.536 13.1321C143.863 12.3906 142.929 12.0199 141.736 12.0199C140.927 12.0199 140.206 12.1989 139.576 12.5568C138.954 12.9062 138.464 13.4134 138.106 14.0781C137.756 14.7429 137.581 15.5483 137.581 16.4943ZM154.171 28V8.36364H158.799V28H154.171ZM156.498 5.5767C155.765 5.5767 155.134 5.33381 154.606 4.84801C154.077 4.35369 153.813 3.76136 153.813 3.07102C153.813 2.37216 154.077 1.77983 154.606 1.29403C155.134 0.799715 155.765 0.552556 156.498 0.552556C157.239 0.552556 157.87 0.799715 158.39 1.29403C158.918 1.77983 159.182 2.37216 159.182 3.07102C159.182 3.76136 158.918 4.35369 158.39 4.84801C157.87 5.33381 157.239 5.5767 156.498 5.5767ZM171.403 28.3835C169.443 28.3835 167.76 27.9531 166.353 27.0923C164.956 26.2315 163.878 25.0426 163.119 23.5256C162.369 22 161.994 20.2443 161.994 18.2585C161.994 16.2642 162.378 14.5043 163.145 12.9787C163.912 11.4446 164.994 10.2514 166.392 9.39915C167.798 8.53835 169.46 8.10795 171.378 8.10795C172.971 8.10795 174.382 8.40199 175.609 8.99006C176.845 9.5696 177.829 10.392 178.562 11.4574C179.295 12.5142 179.713 13.75 179.815 15.1648H175.392C175.213 14.2187 174.787 13.4304 174.113 12.7997C173.449 12.1605 172.558 11.8409 171.442 11.8409C170.496 11.8409 169.665 12.0966 168.949 12.608C168.233 13.1108 167.674 13.8352 167.274 14.7812C166.882 15.7273 166.686 16.8608 166.686 18.1818C166.686 19.5199 166.882 20.6705 167.274 21.6335C167.666 22.5881 168.216 23.3253 168.923 23.8452C169.639 24.3565 170.478 24.6122 171.442 24.6122C172.123 24.6122 172.733 24.4844 173.27 24.2287C173.815 23.9645 174.271 23.5852 174.638 23.0909C175.004 22.5966 175.255 21.9957 175.392 21.2884H179.815C179.704 22.6776 179.295 23.9091 178.588 24.983C177.88 26.0483 176.917 26.8835 175.699 27.4886C174.48 28.0852 173.048 28.3835 171.403 28.3835ZM188.546 28.3963C187.301 28.3963 186.181 28.1747 185.184 27.7315C184.195 27.2798 183.411 26.6151 182.831 25.7372C182.26 24.8594 181.975 23.777 181.975 22.4901C181.975 21.3821 182.179 20.4659 182.588 19.7415C182.997 19.017 183.556 18.4375 184.263 18.0028C184.97 17.5682 185.767 17.2401 186.654 17.0185C187.549 16.7884 188.473 16.6222 189.428 16.5199C190.578 16.4006 191.512 16.294 192.228 16.2003C192.943 16.098 193.463 15.9446 193.787 15.7401C194.12 15.527 194.286 15.1989 194.286 14.7557V14.679C194.286 13.7159 194 12.9702 193.429 12.4418C192.858 11.9134 192.036 11.6491 190.962 11.6491C189.828 11.6491 188.929 11.8963 188.265 12.3906C187.608 12.8849 187.165 13.4687 186.935 14.142L182.614 13.5284C182.955 12.3352 183.517 11.3381 184.301 10.5369C185.086 9.72727 186.044 9.12216 187.178 8.72159C188.311 8.3125 189.564 8.10795 190.936 8.10795C191.882 8.10795 192.824 8.21875 193.762 8.44034C194.699 8.66193 195.556 9.02841 196.331 9.53977C197.107 10.0426 197.729 10.7287 198.198 11.598C198.675 12.4673 198.914 13.554 198.914 14.858V28H194.465V25.3026H194.311C194.03 25.848 193.634 26.3594 193.122 26.8366C192.62 27.3054 191.985 27.6847 191.218 27.9744C190.459 28.2557 189.568 28.3963 188.546 28.3963ZM189.747 24.9957C190.676 24.9957 191.482 24.8125 192.164 24.446C192.845 24.071 193.37 23.5767 193.736 22.9631C194.111 22.3494 194.299 21.6804 194.299 20.956V18.642C194.154 18.7614 193.907 18.8722 193.557 18.9744C193.216 19.0767 192.833 19.1662 192.407 19.2429C191.98 19.3196 191.559 19.3878 191.141 19.4474C190.723 19.5071 190.361 19.5582 190.054 19.6009C189.364 19.6946 188.746 19.848 188.201 20.0611C187.655 20.2741 187.225 20.5724 186.909 20.956C186.594 21.331 186.436 21.8168 186.436 22.4134C186.436 23.2656 186.747 23.9091 187.37 24.3438C187.992 24.7784 188.784 24.9957 189.747 24.9957ZM212.652 8.36364V11.9432H201.364V8.36364H212.652ZM204.151 3.65909H208.779V22.0938C208.779 22.7159 208.873 23.1932 209.06 23.5256C209.256 23.8494 209.512 24.071 209.827 24.1903C210.143 24.3097 210.492 24.3693 210.875 24.3693C211.165 24.3693 211.429 24.348 211.668 24.3054C211.915 24.2628 212.103 24.2244 212.231 24.1903L213.01 27.8082C212.763 27.8935 212.41 27.9872 211.949 28.0895C211.498 28.1918 210.944 28.2514 210.287 28.2685C209.128 28.3026 208.084 28.1278 207.155 27.7443C206.226 27.3523 205.489 26.7472 204.944 25.929C204.407 25.1108 204.143 24.0881 204.151 22.8608V3.65909ZM215.803 28V8.36364H220.431V28H215.803ZM218.13 5.5767C217.397 5.5767 216.766 5.33381 216.238 4.84801C215.709 4.35369 215.445 3.76136 215.445 3.07102C215.445 2.37216 215.709 1.77983 216.238 1.29403C216.766 0.799715 217.397 0.552556 218.13 0.552556C218.871 0.552556 219.502 0.799715 220.022 1.29403C220.55 1.77983 220.814 2.37216 220.814 3.07102C220.814 3.76136 220.55 4.35369 220.022 4.84801C219.502 5.33381 218.871 5.5767 218.13 5.5767ZM233.035 28.3835C231.117 28.3835 229.455 27.9616 228.049 27.1179C226.643 26.2741 225.552 25.0937 224.776 23.5767C224.009 22.0597 223.626 20.2869 223.626 18.2585C223.626 16.2301 224.009 14.4531 224.776 12.9276C225.552 11.402 226.643 10.2173 228.049 9.37358C229.455 8.52983 231.117 8.10795 233.035 8.10795C234.953 8.10795 236.614 8.52983 238.021 9.37358C239.427 10.2173 240.514 11.402 241.281 12.9276C242.056 14.4531 242.444 16.2301 242.444 18.2585C242.444 20.2869 242.056 22.0597 241.281 23.5767C240.514 25.0937 239.427 26.2741 238.021 27.1179C236.614 27.9616 234.953 28.3835 233.035 28.3835ZM233.06 24.6761C234.1 24.6761 234.97 24.3906 235.668 23.8196C236.367 23.2401 236.887 22.4645 237.228 21.4929C237.578 20.5213 237.752 19.4389 237.752 18.2457C237.752 17.044 237.578 15.9574 237.228 14.9858C236.887 14.0057 236.367 13.2259 235.668 12.6463C234.97 12.0668 234.1 11.777 233.06 11.777C231.995 11.777 231.109 12.0668 230.401 12.6463C229.703 13.2259 229.178 14.0057 228.829 14.9858C228.488 15.9574 228.318 17.044 228.318 18.2457C228.318 19.4389 228.488 20.5213 228.829 21.4929C229.178 22.4645 229.703 23.2401 230.401 23.8196C231.109 24.3906 231.995 24.6761 233.06 24.6761ZM250.28 16.4943V28H245.652V8.36364H250.075V11.7003H250.305C250.757 10.6009 251.477 9.72727 252.466 9.07955C253.463 8.43182 254.695 8.10795 256.16 8.10795C257.516 8.10795 258.696 8.39773 259.702 8.97727C260.716 9.55682 261.5 10.3963 262.054 11.4957C262.616 12.5952 262.893 13.929 262.885 15.4972V28H258.257V16.2131C258.257 14.9006 257.916 13.8736 257.234 13.1321C256.561 12.3906 255.628 12.0199 254.435 12.0199C253.625 12.0199 252.905 12.1989 252.274 12.5568C251.652 12.9062 251.162 13.4134 250.804 14.0781C250.454 14.7429 250.28 15.5483 250.28 16.4943Z" fill="#181D27"/>
</svg>
